<?xml version="1.0" encoding="utf-8"?>
<!-- Generator: Adobe Illustrator 23.0.2, SVG Export Plug-In . SVG Version: 6.00 Build 0)  -->
<svg version="1.1" id="Layer_1" xmlns="http://www.w3.org/2000/svg" xmlns:xlink="http://www.w3.org/1999/xlink" x="0px" y="0px"
	 viewBox="0 0 1440 1440" style="enable-background:new 0 0 1440 1440;" xml:space="preserve">
<style type="text/css">
	.st0{fill:#B3CEDE;}
	.st1{fill:#F59047;}
	.st2{fill:#04639A;}
	.st3{fill:#14689B;}
	.st4{fill:#F59046;}
	.st5{fill:#3D82AC;}
	.st6{fill:#F69854;}
	.st7{fill:#2372A2;}
	.st8{fill:#2472A2;}
	.st9{fill:#F69955;}
	.st10{fill:#2271A1;}
	.st11{fill:#2170A1;}
	.st12{fill:#4D8CB3;}
	.st13{fill:#3C83AB;}
	.st14{fill:#2975A4;}
	.st15{fill:#347DA9;}
	.st16{fill:#4185AE;}
	.st17{fill:#5793B8;}
	.st18{fill:#4487B0;}
	.st19{fill:#5A95B9;}
	.st20{fill:#7BAAC7;}
	.st21{fill:#C2D7E5;}
	.st22{fill:#F7F9FB;}
	.st23{fill:#EAF0F5;}
	.st24{fill:#F4F8FA;}
	.st25{fill:#125B90;}
	.st26{fill:#FCFCFC;}
	.st27{fill:#FEF9F6;}
	.st28{fill:#D2E2EC;}
	.st29{fill:#0E669E;}
</style>
<g>
	<g>
		<path class="st0" d="M16.7,650.5c1.8-0.3,3.6-0.6,5.5-0.9c-0.5,6.7-0.9,13.5-1.4,20.2c-1.4-1.1-2.7-2.2-4.1-3.4
			C16.7,661.2,16.7,655.8,16.7,650.5z"/>
		<path class="st1" d="M671.9,598.1c3.2,0.5,5.4,1.2,7.6,1.2c25.3-0.1,50.6-0.1,76-0.5c4.7-0.1,6.6,1.6,6.2,5.9
			c-0.4,4-1.6,7.1-6.9,6.7c-9-0.6-18.1-0.6-27.1-1c-5.3-0.3-7.1,2-7,7.1c0.9,32.2,1.7,64.4,2.6,96.5c0.1,3.5-0.1,6.9,0.1,10.4
			c0.4,5.9-1.8,8.9-8.2,8.9c-6.5,0-8.1-3-8.1-8.9c0.2-34.9,0-69.9,0.2-104.8c0.1-6.8-1.8-9.8-9-9.3c-11.1,0.8-22.3,0.6-33.5,1.4
			c-2.5,0.2-5.6,2-7.3,4c-6.7,8-13.2,16.1-19,24.6c-1.8,2.6-2.7,7.2-1.7,10.1c9.1,25,18.6,49.8,28.3,74.5c2.1,5.4,1.3,8.2-5,8.3
			c-11.7,0.1-23.5,0.6-35.2,0.1c-2.4-0.1-5.8-3.5-6.7-6c-4.5-12.8-8.2-25.8-12.3-38.8c-0.5-1.7-1.5-3.3-2.8-6.1
			c-2.1,2.4-3.7,4-5.1,5.8c-9.4,12.9-18.9,25.8-28,38.9c-3.1,4.4-6.5,6.3-11.9,6.2c-29.1-0.2-58.1-0.3-87.2,0.1
			c-7.3,0.1-9.7-1.9-9.6-9.5c0.4-34.9,0.2-69.8,0.2-104.8c0-15.9,0-15.9,16.1-15.9c19.5,0,38.9,0.1,58.4,0c6.6,0,10.2,1,9,9.6
			c-2.6,18.2-2,18.3-20.3,18.3c-3.5,0-6.9,0-10.4,0c-11.8,0-16.9,7.3-12.3,18.2c0.7,1.7,4.1,3.2,6.3,3.3c8.5,0.4,17.1,0.2,25.6,0.1
			c5.7-0.1,8.6,0.8,7.7,8.1c-2.2,19.3-1.8,19.4-21.5,19.4c-1.1,0-2.1,0-3.2,0c-16.4,0-17.7,1.4-15.2,17.9c0.3,2.2,3.8,5.5,5.8,5.5
			c11.4,0,22.9-0.5,34.2-1.5c2.4-0.2,5.1-2.8,6.8-4.9c12.6-15.8,24.9-31.9,37.6-47.7c3.5-4.3,3.8-7.9,1.8-13.1
			c-8.7-22.6-16.7-45.5-25.4-68c-2.3-5.9,0.7-7.9,4.9-8.1c12.2-0.6,24.5-1,36.7-0.3c2.4,0.1,5.6,5.1,6.7,8.4
			c3.4,10.3,5.8,21,8.8,31.5c0.7,2.4,1.9,4.6,3.7,8.8c9.1-12.8,18-23.5,24.8-35.3c6.2-10.7,13.9-15.1,26-13.6
			c5.5,0.7,11.2-0.2,16.8-0.1c2.2,0.1,4.4,1,6.6,1.5c-0.7,2.1-1,4.6-2.3,6.3c-6.5,8.5-13.2,16.7-19.8,25.1
			C674.5,593.9,673.6,595.5,671.9,598.1z"/>
		<path class="st2" d="M623.5,1000.3c3.2-0.2,6.4-0.5,9.5-0.5c246.8,0,493.5,0,740.3,0c2.9,0,5.8,0.2,8.8,0.3c4.9,2,4.6-1.6,4.6-4.5
			c0.1-6.5,0-13,0-21.9c9.6,8.5,17.5,15,24.8,22.2c2.8,2.8,5.4,7.3,5.5,11.1c0.4,31.2,0.3,62.4,0.2,93.6c0,2.3-0.4,4.6-0.7,7.5
			c-4.1,0-7.5,0-10.9,0c-246.6,0-493.2,0-739.8,0c-2.7,0-5.4,0.2-8,0c-5.4-0.5-7.9,1.4-7.4,7.2c0.4,5.2,0.1,10.4,0.1,17.5
			c-9.4-8.1-17.4-14.8-25.1-22c-1.5-1.4-2.1-4.3-2.1-6.5C623.2,1069.6,623.4,1035,623.5,1000.3z M1410.5,1102.8
			c0-31.4,0-62.7,0-94.5c-203.1,0-405,0-607.8,0c0,31.8,0,63.2,0,94.6c1.3,0.7,2.6,1.7,4,2c2.1,0.3,4.3,0.1,6.4,0.1
			c195.7,0,391.5,0,587.2-0.1C1403.6,1104.9,1407,1103.5,1410.5,1102.8z M679.4,1062.4c5.8-0.3,11.3-0.6,16.9-0.9c0-3,0-5.4,0-8.6
			c-5.7,0-11.1,0-16.8,0c0-3.9,0-6.9,0-10.6c6.3,0,12.1,0,18,0c0-3.2,0-5.7,0-8.3c-10.6,0-20.5,0-30.5,0c0,16.5,0,32.4,0,48.6
			c10.8,0,21.2,0,31.7,0c0-2.9,0-5.2,0-8.2c-6.6,0-12.9,0-19.3,0C679.4,1070.1,679.4,1066.5,679.4,1062.4z M719.8,1053
			c0-3.7,0-6.7,0-10.7c6.4,0,12.4,0,18.4,0c0-3.3,0-5.6,0-8.2c-10.6,0-20.8,0-31.3,0c0,16.4,0,32.4,0,48.7c10.8,0,21.3,0,32,0
			c0-3,0-5.5,0-8.6c-6.8,0-13.1,0-19.1,0c0-4.3,0-7.9,0-12.2c5.8,0,11,0,16.5,0c0-3.2,0-5.7,0-8.9C730.7,1053,725.5,1053,719.8,1053
			z M778.9,1042.6c-0.3-3.7-0.6-6.1-0.8-8.6c-10.7,0-20.4,0-30.6,0c0,16.4,0,32.5,0,48.7c10.7,0,21,0,31.5,0c0-3,0-5.4,0-8.4
			c-6.7,0-12.7,0-19.5,0c0.3-4.4,0.5-8.2,0.8-12.4c5.9,0,10.9,0,16.3,0c0-3,0-5.5,0-8.8c-5.5,0-10.8,0-16.5,0c0-3.7,0-6.7,0-10.5
			C766.2,1042.6,772,1042.6,778.9,1042.6z M645,1082.5c4.6,0,8.2,0,11.8,0c0-16.4,0-32.2,0-47.7c-4.4,0-8.2,0-11.8,0
			C645,1051,645,1066.5,645,1082.5z"/>
		<path class="st3" d="M139.5,475.5c0.1-0.4,0.3-0.7,0.7-1c3.2-3.7,6.3-7.4,9.5-11.1c0,0,0.1-0.1,0.1-0.1c4.3-3.8,8.8-7.3,13-11.3
			c7-6.7,13.7-13.7,20.5-20.6c0.2-0.4,0.5-0.6,0.9-0.8c9.9-4.5,18.9-10,24.3-20.2c1.4-2.6,3.5-5.4,6-6.6
			c17.3-8.7,34.4-17.7,52.2-25.1c21.5-9,44.3-13.9,67.5-16.6c6.4-0.7,12.6-2.5,18.9-3.8c4.8-0.1,9.5-0.2,14.3-0.3
			c2.1,0,4.1-0.1,6.2-0.1c6.3,0.1,12.7,0.3,19,0.4c1.8,0.8,3.6,2,5.5,2.3c31.3,3.3,61.6,10.5,90.5,22.7c2.9,1.2,4.7,4.8,7,7.4
			c3.1,3.6,5.5,8.5,9.4,10.6c23.4,12.8,45.3,27.7,64.8,45.9c23.9,22.3,43.5,47.9,58.7,76.9c2.4,4.5,5.8,8.5,8.7,12.8
			c0.4,1.4,0.8,2.9,1.2,4.3c-2.3,0.1-4.7,0.2-7.1,0.3c-1.1,0.5-2.1,0.9-3.2,1.4c-4.5-7.7-8.9-15.4-13.4-23.1
			c-6.3-10.7-12.2-21.7-19.2-32c-3.5-5.2-9-9.1-13.6-13.7c-0.4-0.2-0.6-0.5-0.7-0.9c-7.3-7.2-14.5-14.3-21.8-21.5
			c-0.6-0.5-1.1-1.1-1.7-1.6c-6.8-5.4-13.7-10.7-20.5-16.1c0,0-0.2-0.2-0.2-0.2c-0.8-1.3-1.3-3.2-2.5-3.9
			c-12.6-7.4-25.1-14.9-38-21.8c-1.9-1-5.3,1-8,1.3c-3.7,0.4-7.8,1.7-11.1,0.6c-11.1-3.5-21.7-8.4-32.9-11.8
			c-6.3-1.9-13.1-1.9-19.7-2.7c-1-0.1-2-0.2-3.1-0.3c-5.9-4.4-12.4-5.2-19.3-3.1c-1-0.1-2-0.2-3.1-0.3c-0.5-0.6-1-1.7-1.5-1.7
			c-17.8-0.1-35.6-0.1-53.4,0c-0.5,0-1,1.1-1.5,1.7c-1,0.1-2.1,0.2-3.1,0.3c-1.5-0.4-3.1-1.3-4.5-1c-10.4,1.9-20.7,4.1-31,6.1
			c-21.2,4.2-40.7,12.8-59.9,22.6c-8.8,4.5-16.2,12.8-27.9,11c-2.3-0.4-5.4,4.1-8.1,6.3c0,0-0.2,0.1-0.2,0.1
			c-4.7,3.7-9.4,7.4-14.2,11.1c-0.2,0.4-0.5,0.6-1,0.7c-2.2,1.2-4.8,2-6.6,3.6c-40.7,36.6-69.7,80.7-84,133.8
			c-3.9,14.3-7.3,28.9-8.6,43.6c-1.5,16.5-1.4,33.4-0.1,49.9c1.3,17.1,3.3,34.4,7.6,50.9c8.5,33.2,22.9,63.9,43.2,91.7
			c3.2,4.3,7.3,8,11,11.9c0.4,0.2,0.6,0.5,0.7,0.9c5,6.6,9.6,13.5,15.1,19.6c3.9,4.3,9.1,7.3,13.8,11c0.4,0.1,0.7,0.3,0.9,0.7
			c3.7,3.2,7.3,6.3,11,9.5c0,0,0.1,0.1,0.1,0.1c8,5.8,16,11.6,24,17.5c0,0,0.1,0.1,0.1,0.1c2,1.9,3.7,4.6,6.1,5.7
			c20,9.2,40.1,18.2,60.2,27.3c0.4,0.1,0.7,0.3,0.9,0.7c4.2,3.2,8,7.7,12.7,9.2c19.2,6.3,39.1,8.8,59.3,8.4c0,1.4,0,2.8,0.1,4.2
			c-20.8-3-41.6-6.3-62.4-8.9c-5.2-0.6-10.7,1.2-16.1,1.9c-1.4,0-2.9,0-4.3,0c-3.9-1.9-7.7-4.1-11.8-5.6
			c-41.1-16.1-76.9-40.2-107.7-71.7c-2.5-2.6-5.7-4.6-8.5-6.8c-0.5-0.6-1.1-1.2-1.6-1.9c-4.3-5.3-8.5-10.5-12.8-15.8
			c0,0-0.1-0.1-0.1-0.1c-2-3.7-3.6-7.6-6-11c-15.3-22.2-27.5-46-36.1-71.6c-3.7-10.9-7.7-21.8-11.5-32.7c-0.2-1-0.3-2-0.5-3
			c-0.9-4.3-1.8-8.6-2.7-13c-0.1-1.6-0.3-3.1-0.4-4.7c-1-7.5-2-15-3-22.5c-0.1-5.3-0.2-10.6-0.3-15.9c0-4.2,0.1-8.4,0.1-12.6
			c0.1-5.3,0.2-10.6,0.3-15.8c1-7,1.9-14,2.9-21c0.1-1.5,0.3-3.1,0.4-4.6c1.1-2,2.6-4,3.2-6.1c4-14.7,7-29.8,11.9-44.2
			c9.6-27.7,22.8-53.6,40.9-76.9C136.7,482.3,137.9,478.7,139.5,475.5z"/>
		<path class="st4" d="M354.3,676.7c0-21.3,0.2-42.7-0.1-64c-0.1-6.8,1.8-9.6,8.9-9.5c22.7,0.3,45.3,0.2,68,0c5.9-0.1,8.1,2.1,7.7,8
			c-1.3,21.5,3.4,19.9-19.7,19.9c-4.3,0-8.6-0.3-12.8,0.1c-3.8,0.3-10.4,0.6-10.8,2.1c-1.4,5.5-0.9,11.5-0.4,17.3
			c0.1,0.9,3.9,2.1,6,2.1c9.1,0.2,18.1,0.2,27.2,0c5.7-0.1,7.7,2.7,7,8c-0.1,1.1-0.4,2.1-0.5,3.2c-2,16.4-2,16.4-19,16.4
			c-2.1,0-4.3,0-6.4,0c-14.8,0-18.9,5.2-14.7,19.7c0.5,1.8,4.2,3.8,6.5,3.8c10.9-0.1,21.8-0.6,32.7-1.3c6.3-0.4,9,1.8,8.1,8.2
			c-0.6,4.5-1.3,9-1.1,13.5c0.4,7.7-3.4,9.4-10.3,9.3c-22.7-0.3-45.3-0.2-68,0c-6.9,0.1-8.9-2-8.4-9.4c1-15.7,0.3-31.4,0.3-47.2
			C354.5,676.7,354.4,676.7,354.3,676.7z"/>
		<path class="st1" d="M248.1,671c0-20,0.1-39.9-0.1-59.9c0-5.2,1.3-8,7.1-8c23.5,0.2,46.9,0.2,70.4,0c5.6,0,7.4,2.2,7.5,7.6
			c0.5,20,0.4,20.3-19.7,20.3c-5.6,0-11.2,0.3-16.8-0.1c-6.5-0.5-8.7,2.4-8.1,8.4c0.2,2.1,0.2,4.3,0,6.4c-0.4,5.1,1.5,7.3,6.9,7
			c8.5-0.3,17.1,0.1,25.6-0.2c6.4-0.3,9.6,1.8,8.7,8.7c-2.5,19.3,1.7,19-19.4,18.9c-1.9,0-3.7,0-5.6,0c-17,0.3-15.6-3.4-15.8,16.6
			c-0.1,5.8,2.5,7.4,7.8,7.1c9.8-0.7,19.6-1.2,29.5-1.4c9.4-0.2,11.2,2.1,10,11.4c-0.2,1.6-0.7,3.1-0.9,4.7
			c-1.8,14.6-1.8,14.6-16.3,14.6c-20.5,0-41-0.2-61.6,0.1c-6.7,0.1-8.8-2.2-8.6-8.8c0.4-17.8,0.1-35.7,0.1-53.6
			C248.6,671,248.4,671,248.1,671z"/>
		<path class="st5" d="M172.9,772c-0.6,8.4-5.8,15.8-13.4,17.8c-8.3,2.2-16,0.3-22-6c-5.7-6.1-7.4-15.3-2.6-22.2
			c4.7-6.7,4-12.1,1.6-19.6c-28.8-90.5-12.7-172.8,48.8-244.9c38.8-45.5,89.3-72.5,148.4-80.9c73.1-10.4,139,8.1,196.3,55.1
			c22.2,18.2,40.2,40.3,54.8,65.1c1.2,2,1.8,4.2,2.9,6.6c-7.9,3.5-10.1-2.3-12.7-6.5c-19.3-31.4-44.3-57.4-75.6-76.8
			C433.8,419,364,410.4,291.2,435.9c-72.5,25.4-121.2,75.9-146.7,147.8c-18.7,52.7-17.3,106.1,1.2,159c1.5,4.3,3.5,6.3,8.4,6.6
			c11.3,0.9,18.7,8.9,18.9,19.6c-1.2-1.3-3.1-2.4-3.5-3.9c-2.2-7.8-8.2-10.4-15.2-12.1c-4.1-1-8-2.7-10.7-3.7
			c-1.3,2.8-2.9,7.1-5,11.1c-3.7,6.9-4.4,14.6,0.6,20c3.8,4.1,10.7,7.1,16.3,7.2c6.1,0.1,11.8-4,13.6-11.3
			C169.4,774.7,171.6,773.4,172.9,772z"/>
		<path class="st6" d="M1051.8,715c2.8-7.6,5.7-15.1,8.3-22.7c9.6-28.5,19-57,28.6-85.4c2.1-6.1,15.6-11.1,20.9-7.4
			c1.7,1.2,2.4,4.6,2.5,7c0.4,10.4,0.3,20.8,0.6,31.2c0.9,29.3,1.8,58.5,3,87.8c0.2,5.3-0.8,8-6.7,8c-5.7,0.1-8.3-1.6-8.3-7.7
			c0-21.6-0.1-43.2-0.4-64.8c-0.2-11.4-0.8-22.8-1.4-34.3c-0.1-1.2-0.7-2.3-2.9-3.7c-2.8,7.8-5.7,15.5-8.3,23.4
			c-8.8,26.5-17.7,52.9-26,79.6c-2.1,6.8-6.2,7.3-12,7.5c-6.1,0.2-9.8-1.1-11.8-7.7c-9.3-31.6-19-63.1-28.6-94.6
			c-0.7-2.1-1.6-4.2-2.5-6.3c-0.8,0-1.5,0-2.3,0c-0.6,3.9-1.6,7.8-1.8,11.8c-1.2,30-2.4,60.1-3.2,90.1c-0.2,5.6-2.8,6.6-7.5,6.6
			c-4.8,0-6.8-1.7-6.4-6.6c1.6-22.3,3.1-44.5,4.4-66.8c0.9-16.7,1.4-33.5,2.1-50.2c0.2-4.2-1.4-9.5,5.6-10.4
			c12.2-1.6,16-0.3,18.3,7.4c8.3,27.2,16.5,54.5,24.8,81.7c2.7,8.9,5.7,17.8,8.5,26.6C1050.1,715,1051,715,1051.8,715z"/>
		<path class="st7" d="M1019.8,783.5c4.6,14.4,9.1,28.8,13.7,43.2c1.8,5.6,3.7,11.2,5.5,16.8c0.9-0.1,1.7-0.1,2.6-0.2
			c0.4-2,1.1-4.1,1.2-6.1c0.7-18.1,1.6-36.2,1.9-54.3c0.1-6.7,2.5-9.4,9-8.6c1.6,0.2,3.2,0,4.8,0c21.9,0.1,15.7-2.2,22.2,18.5
			c1.8,5.8,3.1,11.7,6.5,17.8c1.1-2.5,2.4-4.8,3.1-7.4c1.7-6.1,3.6-12.3,4.7-18.6c1.3-8.1,5.1-10.8,13.5-10.5
			c19,0.7,18.9,0.3,20,19.2c0.9,16.2,1.8,32.3,3,48.5c0.3,4-0.6,6.3-5,6.2c-0.3,0-0.5,0-0.8,0c-16.2,1.3-16.4,1.3-17-15.4
			c-0.3-8-0.1-16-0.1-24.1c-1.2-0.1-2.3-0.2-3.5-0.3c-2.8,10.3-5.7,20.6-8.2,31c-1.4,5.8-3.6,8.7-10.5,9.2
			c-8.4,0.6-12-1.5-13.2-10.1c-1.1-8.1-4-16-6.2-23.9c-0.6-2.1-1.8-4-2.8-6c-0.9,0.1-1.9,0.3-2.8,0.4c0,6.4,0,12.8,0,19.2
			c0,2.7,0,5.3,0,8c0,12.9-0.8,13.5-13.4,12.8c-8.4-0.4-16.8-0.4-25.1-0.1c-4.7,0.2-7.4-1.4-8.8-6c-3.6-11.9-3.8-11.9-16.4-11.7
			c-1.6,0-3.2,0.2-4.8,0.2c7-6.8,20.9-3.9,22.6,5.2c1.5,7.9,5.6,10.6,13.1,9.4c2.2-0.4,4.5-0.4,7.5-0.6
			c-4.4-15.4-8.8-29.9-12.8-44.6C1021.8,795,1021,789.2,1019.8,783.5z"/>
		<path class="st8" d="M1200.8,809.3c-2.7,10.1-6.3,20.1-7.8,30.3c-1.6,10.8-9.5,8.1-15.7,8.9c-6.4,0.8-6.7-4.6-7.8-9
			c-2.1-8.5-4.3-17-6.6-25.5c-0.4-1.6-1.6-3-4.4-4.3c-0.3,3.7-0.7,7.5-0.8,11.2c-0.1,6.9,0,13.9,0,20.8c0,10.2-7.9,6.2-12.9,6.9
			c-5.5,0.8-6.6-2.2-6.3-7.2c1.1-20.2,1.9-40.4,2.6-60.5c0.2-4.6,2-6.9,6.8-6.6c3.7,0.2,7.5,0.1,11.2,0.1c13.8,0,13.7,0,16.8,13.4
			c1.5,6.7,3.4,13.4,5.2,20c0.2,0.6,1.1,1,2.9,2.3c2-6.7,3.9-12.9,5.7-19.1c0.4-1.5,0.5-3.2,0.9-4.7c2.9-12,2.9-12,15.4-12
			c16.1,0,16.6,0,18.1,16c1.6,17.5,2.3,35,2.9,52.6c0.1,1.7-2.7,4.9-4.2,4.9c-18.6,0.5-18.4,4.9-18.2-15c0.1-7.8-1-15.5-1.5-23.3
			C1202.3,809.5,1201.5,809.4,1200.8,809.3z"/>
		<path class="st4" d="M181.7,702.3c0-19.7,0.1-39.4-0.1-59.1c-0.1-10.6-0.6-21.3-1.3-31.9c-0.4-5.8,1.5-8.3,7.6-8.2
			c10.1,0.2,20.2-0.3,30.3,0.1c1.6,0.1,4.4,3.7,4.4,5.6c-0.1,29.3-0.7,58.6-0.9,87.9c-0.1,9.6,0.7,19.1,1.3,28.7
			c0.3,5.3-1.3,8-7.1,7.8c-9.3-0.3-18.7-0.2-28,0c-5.5,0.1-7.6-2.4-7.5-7.8c0.2-7.7,0.1-15.5,0.1-23.2
			C180.9,702.3,181.3,702.3,181.7,702.3z"/>
		<path class="st6" d="M826.5,672.2c15.5,20.2,30.1,39.3,44.8,58.5c-9.6,4.9-16.1,3.5-21.5-3.7c-12.3-16.4-24.6-32.8-37-49.1
			c-2.9-3.8-13.6-6.1-17.3-3.4c-1.4,1-2.3,3.5-2.3,5.3c0.2,14.9,0.4,29.8,1.1,44.7c0.3,5.6,0.1,9.1-7.1,9c-6.5-0.1-8.1-2.5-8.1-8.6
			c0.1-30.4-0.1-60.8-0.3-91.2c-0.1-8.8-0.6-17.5-1.1-26.3c-0.3-5.5,1.3-8.4,7.6-8.2c15.1,0.3,30.3-0.7,45.4,0.3
			c18.3,1.3,29.8,12.9,31.5,32.2c1.2,13.3-6.5,29.6-23.9,36.1C834.9,669.1,831.5,670.4,826.5,672.2z M792.9,635.9
			c0,6.4-0.5,12.8,0.2,19.1c0.3,2.3,3.5,6.2,5,6.1c12.1-1,24.4-1.6,36-4.6c9.8-2.6,14-12.5,13.4-24.6c-0.5-9.9-5.3-17.4-15.7-19.3
			c-11.3-2-23.1-1.8-34.7-2c-1.4,0-3.8,3.9-4,6.2C792.5,623.1,792.9,629.5,792.9,635.9z"/>
		<path class="st9" d="M926.3,599.3c10.4,0,20.8-0.3,31.2,0.2c2.5,0.1,6.5,3,6.9,5.1c0.8,4.5-2.2,7.3-7.2,7.2
			c-15.5-0.3-30.9-0.2-46.4-0.7c-6.1-0.2-8.7,1.6-8.4,8.1c0.4,10.4,0.3,20.8,0,31.2c-0.1,5.2,1.7,7.1,6.9,7
			c14.9-0.3,29.9-0.3,44.8-0.3c3.7,0,8-0.6,7.8,5.3c-0.2,5.4-3.2,7-8.5,6.9c-14.1-0.3-28.3,0-42.4-0.3c-5.9-0.1-8.2,2-8,7.9
			c0.3,11.7,0.2,23.5,0.1,35.2c0,6.8,2.3,10,10,9.5c14.6-1,29.3-1.2,43.9-1.3c3.6,0,8.4-0.7,8.5,5.7c0.1,5.6-2.3,7.5-7.7,7.4
			c-17.1-0.2-34.1-0.1-51.2-0.1c-2.1,0-4.3-0.1-6.4,0c-12.3,0.7-12.2,0.7-12.2-11.4c-0.1-37.8-0.1-75.5-0.5-113.3
			c-0.1-7.3,1.9-10,9.4-9.5C906.5,599.8,916.4,599.3,926.3,599.3z"/>
		<path class="st9" d="M1145.2,692.8c0-27.7,0.3-55.4-0.2-83.1c-0.1-7.7,1.4-10.9,10-10.6c19.7,0.6,39.5,0.1,59.2,0.3
			c3.2,0,8.2-1.7,7.9,4.7c-0.2,5.4-2.5,8.1-8.5,7.9c-14.9-0.5-29.9-0.3-44.8-0.8c-6-0.2-8.7,1.5-8.5,8.1c0.5,10.4,0.3,20.8,0,31.2
			c-0.2,5.2,1.6,7.2,6.9,7.1c14.9-0.3,29.9-0.2,44.8-0.4c4,0,7.8,0.2,7.5,5.7c-0.2,5-3,6.6-8,6.5c-14.1-0.3-28.3,0.2-42.4-0.4
			c-7.3-0.3-9.3,2.3-8.8,9.3c0.8,12.5,1.2,25,1.3,37.5c0,5.5,3.1,5.9,7.2,5.8c15.2-0.5,30.3-1,45.5-1.2c3.7,0,8.5-0.6,8.9,5.5
			c0.4,6.1-2.8,7.7-8.4,7.7c-18.1-0.2-36.3-0.1-54.4-0.1c-13.7,0-13.7,0.1-13.7-14.2c0-8.8,0-17.6,0-26.4
			C1146.2,692.8,1145.7,692.8,1145.2,692.8z"/>
		<path class="st10" d="M1297.2,813.6c0,3.3-0.1,6.5,0,9.8c0.2,4.2,0.8,8.5,0.8,12.7c0.1,11.4-4,14.9-15.4,12.2
			c-1.7-0.4-4-3.6-4-5.5c-0.5-20.8-0.6-41.6-0.8-62.4c0-4.3,1.9-5.9,6.3-6.3c8.6-0.7,15.5,0.6,20.1,9.1c3.4,6.3,8.2,11.8,12.5,17.5
			c1.6,2.2,3.6,4,5.5,6.1c0.8-0.3,1.7-0.5,2.5-0.8c-0.3-6.9-0.5-13.9-1-20.8c-0.4-5.2-1.7-10.4,6.2-11c11.7-0.9,12.8-0.2,12.8,9.1
			c0,18.4,0.2,36.8-0.1,55.2c-0.1,3.2-1.3,8.8-3.1,9.2c-5.4,1.5-11.7,2.9-16-3.1c-6.3-8.6-12.4-17.3-18.8-25.9c-1.6-2.2-3.7-4-5.5-6
			C1298.6,813.1,1297.9,813.3,1297.2,813.6z"/>
		<path class="st10" d="M369.2,916.7c-17.3-2.4-34.7-4.9-52-7.2c-4.8-0.7-6.5-2.9-4.9-7.6c0.8-2.3,1.1-4.7,1.5-7
			c0.8-5.4,3.4-6.8,8.9-5.7c52,10.9,102.1,5.1,149.8-18.4c9.9-4.9,9.9,2.9,12.9,7.3c3.5,5,3,8.4-3.4,11.6
			C451,905.4,409.1,915.3,369.2,916.7z"/>
		<path class="st10" d="M714,823.6c0.3,4.8,0.6,9.7,1,14.5c0.7,8.9-0.6,10.4-9.4,10.5c-1.9,0-3.8-0.2-5.6,0
			c-6.4,0.7-9.4-1.7-8.8-8.6c0.8-9.3,1.3-18.6,1.3-27.9c0-10.1-0.6-20.2-1.3-30.3c-0.4-5.4,1.1-8,7-7.7c11.2,0.6,22.4,0.5,33.5,1.2
			c8.3,0.5,14.1,5.1,16.3,13.1c2.4,8.7,1.9,17.5-5.2,23.7c-4.9,4.2-4.6,7.2-1.7,12.1c4.2,7,7.7,14.4,12.3,23.2c-8,0.4-14.5,1-21,0.7
			c-1.9-0.1-4.2-2.8-5.3-4.9c-3.5-6.7-6.6-13.7-9.8-20.6C716,823.1,715,823.3,714,823.6z M711,800.3c3,3.2,4.5,6.3,6.2,6.4
			c5.3,0.2,9.8-3.1,9.4-8.4c-0.2-2.9-4.4-5.5-6.7-8.3C717.3,793.1,714.7,796.1,711,800.3z"/>
		<path class="st11" d="M822.8,811.7c-0.1,13.2-2,26-15,33.1c-13,7.1-26.9,7.8-39.6-0.2c-16.1-10.2-15.5-26.5-13.6-42.9
			c1.6-13.4,8.3-23.4,21.7-26.6c13.9-3.3,27.8-3.2,38.3,8.9C821.5,791.9,823,801.6,822.8,811.7z M799.7,812.2
			c-0.9-5.5-0.8-10.7-2.8-14.7c-1.6-3.2-6-7.1-8.9-7c-3.2,0.2-8.5,4.4-8.8,7.3c-1,9.3-0.8,18.9,0.3,28.2c0.3,2.7,5.4,6.3,8.6,6.7
			c2.6,0.3,6.9-3.1,8.2-5.8C798.5,822.2,798.8,816.7,799.7,812.2z"/>
		<path class="st8" d="M1410.6,797.4c-8.9-4.5-16.2-8.9-25.3-4.7c-7.7,3.6-10.7,10.3-10.2,17.5c0.4,6.4,3.3,12.9,6.5,18.7
			c1,1.9,6.4,2.3,9.5,1.7c1.2-0.2,1.9-4.8,2.3-7.5c0.4-2.3-0.6-5.1,0.3-7.1c0.9-2.1,3.2-3.6,5-5.3c0.3-0.3,1,0,1.6,0
			c16.3-0.4,16.3-0.4,16.3,16c0,0.8,0,1.6,0,2.4c0,18.6,2.6,17.2-17.3,20.1c-19.9,2.9-36.4-0.9-44.7-17.9
			c-7.2-14.7-4.4-37.2,6.5-47.8c10.8-10.5,34.9-14.1,48-6.8c1.7,1,3.6,3.6,3.6,5.5C1412.5,786.9,1411.5,791.5,1410.6,797.4z"/>
		<path class="st7" d="M888.9,796.6c-5-1.8-8.8-3.4-12.8-4.6c-12-3.6-23.1,4.1-23,16.5c0,5.9,0.8,12.3,3.3,17.5
			c1.3,2.8,7,3.5,10.6,5.2c1.2-3.1,2.6-6.2,3.5-9.4c1-3.4,0.9-9.6,2.3-9.9c6.1-1.3,12.5-1,18.8-0.8c0.7,0,1.7,3.6,1.7,5.5
			c0.2,7.5-0.1,14.9,0.1,22.4c0.2,4.8-1.7,8.2-6.4,8.4c-11,0.6-22.2,1.6-33.2,0.8c-10.6-0.8-17.7-7.7-22.1-17.3
			c-6.9-15-3.8-36.8,6.7-47.2c10.8-10.6,32.6-14.1,47.1-7.1c2.1,1,3.9,4.3,4.2,6.7C890.4,787.1,889.4,791.1,888.9,796.6z"/>
		<path class="st11" d="M625.8,811.7c0-10.1,0-20.3,0-30.4c0-4.4,1.2-7.2,6.3-7c11.4,0.5,22.9,0.3,34.2,1.5
			c12.8,1.3,19.3,9.2,19.8,21.9c0.5,11.9-7.1,22.9-17.7,25.6c-3.1,0.8-6.4,1.6-9.5,1.3c-8.3-1-11,2.4-10.4,10.4
			c0.3,4-0.1,11.2-1.7,11.6c-5.9,1.7-12.5,1.5-18.8,1.2c-1,0-2.4-4.2-2.5-6.6c-0.3-5,0.2-10.1,0.3-15.2
			C625.8,821.3,625.8,816.5,625.8,811.7z M644.7,798.7c3.9,4.5,6.1,9.6,8.8,9.8c5.5,0.5,9.2-3.7,9.2-9.7c0-5.8-3.8-9.2-9.1-8.5
			C650.8,790.7,648.7,794.7,644.7,798.7z"/>
		<path class="st10" d="M1019.8,783.5c1.1,5.7,1.9,11.5,3.5,17.1c4,14.6,8.3,29.2,12.8,44.6c-3,0.2-5.3,0.2-7.5,0.6
			c-7.5,1.2-11.6-1.4-13.1-9.4c-1.7-9.1-15.5-12-22.6-5.2c0,0-0.1,0.1-0.1,0.1c-1.2,3.7-2.4,7.4-3.5,11.1c-0.3,1.2-0.6,2.3-0.9,3.5
			c-5.7,0-11.4,0-18,0c1-2.7,1.5-3.9,1.8-5.1c2.3-8.9,4.5-17.9,6.7-26.8c0.2-1.1,0.4-2.3,0.6-3.4c1.3-2.2,2.8-4.2,3.7-6.5
			c2.8-7.4,5.1-14.9,7.9-22.2c0.7-1.9,3-4.7,4.3-4.6c7.9,0.5,15.8,1.8,23.7,2.8C1019.4,781.2,1019.6,782.4,1019.8,783.5z
			 M1004.6,796.6c-1.2,0-2.3,0.1-3.5,0.1c-1.2,4.5-2.8,8.9-3.2,13.5c-0.1,1.5,2.7,4.1,4.5,4.5c1.3,0.3,4.8-2.3,4.7-3.4
			C1006.8,806.3,1005.5,801.5,1004.6,796.6z"/>
		<path class="st12" d="M947.3,871.6c13.9,0,27.7-0.1,41.6,0.1c2.1,0,4.1,2.1,6.2,3.2c-2.1,1.4-4.2,4-6.4,4.1
			c-15.7,0.8-15.8,0.6-15.7,16.3c0.1,14.4,0.6,28.8,0.4,43.2c0,2.6-2.9,5.2-4.4,7.8c-1.5-2.6-4.1-5.1-4.2-7.7
			c-0.3-17.3-0.2-34.6,0-52c0.1-5.4-1.7-7.7-7.3-7.6c-14.3,0.3-28.6,0.3-42.9,0c-5.8-0.1-7.2,2.1-7.1,7.5c0.5,19.4-2,15.9,16,16.3
			c3.5,0.1,7.1-0.5,10.3,0.2c2.1,0.5,3.7,2.9,5.5,4.4c-1.9,1.6-3.6,4.3-5.6,4.4c-6.3,0.6-12.8,0.4-19.2,0.1
			c-4.7-0.2-6.6,1.3-6.8,6.3c-0.7,19.6-0.9,19.6,19,19.6c3.7,0,7.5-0.3,11.2,0.3c1.5,0.3,3.5,2.7,3.5,4.1c0,1.4-2.3,3.8-3.7,3.9
			c-11.2,0.3-22.4,0.4-33.6-0.1c-1.7-0.1-4.7-3.6-4.8-5.6c-0.8-20.5-1-41-1.5-61.5c-0.1-5.6,2.5-7.4,7.8-7.3
			C919.6,871.8,933.4,871.6,947.3,871.6C947.3,871.6,947.3,871.6,947.3,871.6z M967.7,942.4c1,0,2,0,2.9-0.1c0-2.6,0-5.2,0-7.7
			c0-16.5,0.2-33.1-0.2-49.6c-0.1-6.5,1.9-9.5,8.7-8.9c3.5,0.3,7.1,0.1,10.7,0.1c0-0.4,0-0.8,0-1.2c-13.8,0-27.7,0-41.5,0
			c2.6,1.2,5.2,1.2,7.8,1.2c11.3,0,11.3,0,11.3,10.9c0,16,0,32,0,48C967.3,937.5,967.5,940,967.7,942.4z"/>
		<path class="st13" d="M623.5,1000.3c-0.1,34.7-0.2,69.3-0.2,104c0,2.2,0.6,5.1,2.1,6.5c7.7,7.1,15.8,13.9,25.1,22
			c0-7.1,0.3-12.4-0.1-17.5c-0.5-5.8,2-7.7,7.4-7.2c2.6,0.2,5.3,0,8,0c246.6,0,493.2,0,739.8,0c3.4,0,6.8,0,10.9,0
			c0.3-2.9,0.7-5.2,0.7-7.5c0-31.2,0.2-62.4-0.2-93.6c-0.1-3.8-2.7-8.3-5.5-11.1c-7.2-7.2-15.2-13.7-24.8-22.2c0,8.9,0,15.4,0,21.9
			c0,2.9,0.3,6.5-4.6,4.5c0.7-5.4,1.7-10.8,2.1-16.3c0.4-4.4,0.1-8.8,0.1-13.2c0.7-0.3,1.4-0.7,2.1-1c6,5.3,11.6,11.3,18.2,15.8
			c12.2,8.3,16.3,18.8,15.6,33.7c-1.3,26.9-0.4,53.8-0.4,80.8c0,2.9,0,5.7,0,9.5c-255.4,0-509.8,0-765.8,0c0,9.4,0,18,0,27.9
			c-3.3-1.5-5-1.9-6.3-2.9c-2.5-1.9-4.6-4.6-7.3-6.2c-17.7-10.8-22.3-26.4-20.8-46.6c1.8-24.7,0.3-49.6,0.6-74.4
			C620.3,1005,622.4,1002.7,623.5,1000.3z"/>
		<path class="st14" d="M526.4,868.1c-9.3,0-15.9-3.8-18.8-11.8c-2.7-7.7-2.3-15.6,3.8-21.6c5.7-5.6,12.8-9.1,21-5.5
			c5.2,2.3,8.3,0.6,11.8-3.1c19.4-20.1,34.4-43.2,46.1-68.5c1.3-2.8,4.3-4.8,6.5-7.2c0.1,3.7,1.7,8.3,0.1,11
			c-10.1,17.7-20.5,35.4-31.6,52.5c-4.9,7.5-11.8,13.6-17.4,20.8c-1.6,2-2.4,5.7-1.8,8.2C549.6,856.2,540.4,868.1,526.4,868.1z"/>
		<path class="st5" d="M749.2,910.1c0.4,12.8-3.3,25.7-16.3,32.8c-20.1,11-46.4,2.6-50.2-25c-3.6-26.4,7.5-45.2,28.1-47.4
			C735.2,867.9,749.2,881.9,749.2,910.1z M741.3,909.4c-1-5.2-1.6-10.5-3-15.5c-2.6-9.5-9.9-15.6-19.4-16.2
			c-9.9-0.6-19.5,1.6-23.2,11.6c-3,8.2-5.3,17.6-4.4,26.1c2.1,18.8,14,27.2,30.5,23.8C733.3,936.8,740.5,925.6,741.3,909.4z"/>
		<path class="st5" d="M1094.1,908.4c-0.2-30.8,25.9-48.4,50.7-33.7c5.5,3.2,10.5,9.4,12.9,15.4c4.9,12.1,5,25,0,37.4
			c-6.4,15.9-19.7,22.1-39.3,18.9c-12.4-2-23.1-14.8-24.3-29.2C1093.9,914.2,1094.1,911.3,1094.1,908.4z M1152.3,908.2
			c-0.1,0-0.3,0-0.4,0c0-2.1,0.1-4.3,0-6.4c-1.1-13.6-9.4-23-21.3-24.1c-13.6-1.3-23,5.5-26.3,19.9c-1.3,5.9-1.8,12.2-1.2,18.2
			c1.6,15,10.3,23.7,23,24.2c13.2,0.6,22.1-6.5,25.2-20.6C1152.1,915.7,1152,911.9,1152.3,908.2z"/>
		<path class="st15" d="M360.7,949.5c0-1.4,0-2.8-0.1-4.2c11.8-0.7,23.6-1.5,35.5-2.2c2.9-0.1,5.8-0.2,8.7-0.3
			c5.1-0.9,10.2-1.9,15.3-2.8c1.8-0.2,3.6-0.4,5.4-0.5c3.6-1,7.1-1.9,10.7-2.9c1.6-0.3,3.2-0.6,4.8-0.8c2.7-0.9,5.3-1.8,8-2.6
			c1.1-0.2,2.1-0.4,3.2-0.6c1.1-0.3,2.2-0.7,3.2-1c12-4.7,24.1-9.5,36.1-14.2c1.3-0.6,2.6-1.3,3.9-1.9c3-1.5,6-3,9-4.4
			c1.3-0.7,2.5-1.4,3.8-2c2.5-1.4,5.1-2.8,7.6-4.2c1.2-0.8,2.4-1.6,3.6-2.4c1.4-0.9,2.7-1.7,4.1-2.6c1.3-0.8,2.6-1.6,3.9-2.3
			c4.1-2.9,8.2-5.9,12.3-8.8c1.8-1.4,3.5-2.7,5.3-4.1c1-0.7,1.9-1.5,2.9-2.2c1.2-0.9,2.3-1.9,3.5-2.8c4.8-4.4,9.5-8.7,14.3-13.1
			c1.1-1,2.2-1.9,3.4-2.9c6.9-7.5,13.9-15.1,20.8-22.6c1-1.2,1.9-2.4,2.9-3.6c0.7-0.9,1.5-1.9,2.2-2.8c2.2-0.5,4.3-1,6.5-1.5
			c-0.5,2.5-0.1,5.8-1.5,7.3c-16,16.3-32.3,32.4-48.5,48.6c-1.1,0.9-2.2,1.9-3.3,2.8c-1,0.7-1.9,1.4-2.9,2.1
			c-1.2,0.8-2.4,1.7-3.5,2.5c-6.8,4.5-13.6,9-20.4,13.5c-2.3,1.3-4.6,2.7-6.8,4c-11.2,5.4-22.4,10.7-33.6,16.1
			c-1.1,0.5-2.1,1-3.2,1.6c-1.3,0.4-2.6,0.7-3.9,1.1c-2.5,1-4.9,2.1-7.4,3.2c-1.1,0.2-2.1,0.4-3.2,0.7c-2.1,0.8-4.3,1.6-6.4,2.4
			c-2.4,0.6-4.7,1.1-7.1,1.7c-1.4,0.5-2.8,1-4.1,1.6c-1.6,0.3-3.2,0.5-4.7,0.8c-3.2,0.8-6.4,1.7-9.7,2.5c-2.1,0.3-4.2,0.6-6.3,0.8
			c-3.8,0.8-7.5,1.5-11.3,2.3c-1.6,0.2-3.2,0.4-4.8,0.6c-2-0.3-4.1-1-6.1-0.9C388.6,948.7,374.6,949.1,360.7,949.5z"/>
		<path class="st11" d="M1264.3,811.5c0,10.1-0.2,20.3,0.1,30.4c0.2,4.6-1.2,6.5-5.8,6.1c-2.6-0.2-5.3,0-8,0.1
			c-10.9,0.6-11.2-0.1-10.8-11.4c0.5-17.8,0.5-35.7,0.1-53.5c-0.1-6,1.2-7.9,7.4-7.9c16.8,0,16.8-0.3,16.8,16.9c0,6.4,0,12.8,0,19.2
			C1264.2,811.5,1264.3,811.5,1264.3,811.5z"/>
		<path class="st12" d="M758.4,914.7c0.3-12.1,0.4-24.3,1.3-36.4c0.2-2.4,3.9-6.3,5.8-6.2c2.8,0.1,7.1,2.7,7.9,5.2
			c3.6,10.7,6.2,21.8,9.1,32.7c-2.9-7.7-5.8-15.5-8.8-23.2c-1.8-4.5-0.8-12.1-7.8-11.3c-2.1,0.2-3.4,8.4-5,12.9
			c0.7,0.2,1.3,0.4,2,0.7c0.9-2.2,1.9-4.3,2.8-6.5c0.7-0.1,1.4-0.2,2.1-0.3c1.7,4,3.7,7.9,5,12c4.6,14.8,8.9,29.7,13.7,44.4
			c0.6,1.8,2.9,4.3,4.5,4.3c1.8,0,4.6-1.9,5.2-3.7c3.1-8.4,5.7-17,8.2-25.7c0.3-1.1-1.6-2.8-2.6-4.2c3.5-11.4,6.5-23,10.8-34.1
			c0.8-2.2,6.6-2.9,10.2-3.3c0.8-0.1,2.8,3.9,2.9,6c1,20.7,1.8,41.4,2.3,62.2c0,2-3,4-4.6,6c-1.6-1.9-4.6-3.8-4.7-5.8
			c-0.7-13.3-0.7-26.6-1-39.9c-0.1-1.9-0.8-3.8-2.9-6c-0.8,1.7-1.9,3.3-2.5,5c-4.6,13.6-8.8,27.3-13.8,40.8
			c-0.9,2.5-4.7,5.6-7.2,5.6c-2.4,0-6.2-3-7.1-5.6c-4.7-13.6-8.6-27.4-12.8-41.1c-0.6-1.9-1.4-3.7-3.9-5.6c-1.1,7-2.1,14-3.2,21
			c-0.3-1.8-0.9-3.6-1-5.4c-0.2-3.8,0-7.5,0-11.3c-0.5,0-0.9,0.1-1.4,0.1C760.9,903.6,759.7,909.1,758.4,914.7z"/>
		<path class="st16" d="M843.1,908.9c0-9.9,0.3-19.7-0.1-29.6c-0.2-6.1,2.2-8.1,8-7.7c5.8,0.3,11.7-0.1,17.5,0.1
			c12.4,0.4,21.2,8.4,21.8,19.9c0.7,11.3-7.9,21.9-19.5,23.7c-4.4,0.7-9,0.5-13.5,0.8c-3.9,0.2-5.6,1.7-4.9,6.1
			c0.8,5.2,0.6,10.6,0.8,15.9c0.1,3.7,0.6,8.1-5.1,7.9c-5.9-0.2-4.4-4.8-4.5-8.4c-0.1-4.8,0-9.6,0-14.4c0-4.8,0-9.6,0-14.4
			C843.4,909,843.2,908.9,843.1,908.9z M852.1,893.5c0,2.4,0.3,4.8,0,7.1c-0.9,7.4,2.6,9.6,9.3,8.5c1.6-0.3,3.1-0.4,4.7-0.6
			c9.9-1.4,15.7-8,15-17.1c-0.8-9-7.9-12.8-22-12.6c-11.9,0.2-5.1,9.1-6.9,13.9C852,893,852.1,893.3,852.1,893.5z"/>
		<path class="st17" d="M155.7,834.7c-3.7-4-7.9-7.6-11-11.9c-20.3-27.7-34.7-58.5-43.2-91.7c-4.2-16.5-6.3-33.8-7.6-50.9
			c-1.2-16.6-1.3-33.4,0.1-49.9c1.3-14.7,4.7-29.3,8.6-43.6c14.4-53.1,43.3-97.2,84-133.8c1.8-1.6,4.4-2.4,6.6-3.6
			c-7,7.2-14,14.5-21.1,21.7c-29.9,30.1-50.4,65.6-63.4,105.8c-11.4,35.2-15.8,71.1-12.4,107.9c4.8,51.5,22.4,98.3,53,140.1
			C151.7,827.8,153.6,831.3,155.7,834.7z"/>
		<path class="st15" d="M1184.2,877.9c9.8,17.2,19.6,34.4,29.4,51.5c1.6,1.9,3.1,3.9,4.7,5.8c0.5-0.3,1-0.7,1.5-1
			c0-20.1,0-40.2,0-60.2c2.3,1.1,3.4,2.4,3.4,3.7c0.1,20.8,0.2,41.6,0.1,62.4c0,1.8-1.1,3.5-1.6,5.3c-2.7-0.6-5.3-1.3-8-1.9
			c-0.9-1.2-1.7-2.3-2.6-3.5c-0.8-1.5-1.5-3-2.3-4.4c-0.8-1.2-1.5-2.4-2.3-3.6c-2-3.5-4-7-6-10.4c-0.8-1.3-1.5-2.6-2.3-3.9
			c-4-7.3-8.1-14.5-12.1-21.8c-0.8-1.3-1.5-2.6-2.3-3.8c-0.6-1.2-1.3-2.5-1.9-3.7c-1.4-2.1-2.7-4.1-4.1-6.2
			c-0.9,0.4-1.7,0.9-2.6,1.3c0,2.6-0.1,5.2,0,7.8c0.5,15.1,1,30.2,1.4,45.2c0.1,4.7-0.7,8.4-6.7,5.1c0-5.2,0.1-10.4,0.1-15.7
			c0.1-2.7,0.1-5.5,0.2-8.2c-0.1-13.8-0.2-27.6-0.3-41.4c1.3-1.3,2.6-2.7,3.8-4c2.7,0.6,5.3,1.3,8,1.9
			C1182.7,875.4,1183.5,876.7,1184.2,877.9z"/>
		<path class="st15" d="M625.1,903.4c2.3-23.5,18.1-34.8,44.6-32.1c2.7,1,5.5,2.1,8.2,3.1c0.6,0.5,1.2,0.9,1.8,1.4
			c0.1,1.4,0.2,2.8,0.2,4.2c-2.2,0.1-4.5,0.1-6.7,0.2c-1.4-0.6-2.7-1.1-4.1-1.7c-1.4-0.2-2.8-0.5-4.2-0.7c-3.2,0-6.4,0-9.6,0
			c-18.4,3-25.8,26.5-20.9,41.1c3.3,9.7,8.9,18.2,19,19.5c8.8,1.2,18.2-1.7,27.3-2.8c0.5,6.3-2.2,9.3-11.3,10.7
			c-28.5,4.4-45.5-10.8-44.7-39.8C624.9,905.5,625,904.4,625.1,903.4z"/>
		<path class="st7" d="M979,813.9c-2.2,8.9-4.5,17.9-6.7,26.8c-0.3,1.2-0.8,2.4-1.8,5.1c6.7,0,12.3,0,18,0c-2,0.7-4.1,2-6.2,2.1
			c-11.3,0.4-22.6,0.2-33.9,0.8c-6.4,0.3-8.1-3.8-10.1-8.3c-2.5-5.6-5.2-11.2-7.8-16.8c-0.8,0.2-1.5,0.5-2.3,0.7
			c0,5.1-0.4,10.2,0.1,15.2c0.6,6.4-1.5,9.1-8.3,9.2c-15.6,0.2-15.6,0.5-15.6-15.4c0-17,0.3-34-0.2-51c-0.2-6.6,2.1-8.5,8.3-8.1
			c10.6,0.7,21.2,0.9,31.9,1.3c8.9,0.3,14.6,5.2,16.9,13.4c2.3,8.3,2,16.9-4.9,23c-5,4.4-5,7.8-1.8,12.9c4,6.4,7.3,13.1,10.9,19.7
			c0.8-0.2,1.6-0.4,2.3-0.6C971.5,834,975.2,823.9,979,813.9z M908.1,776.3c0,21.8,0,41.7,0,61.6c0,8.1,1.7,9,12.9,7.9
			c7.4-0.7,4.3-6,4.3-9.6c0-3.9-1.2-7.9-0.9-11.8c0.2-1.9,2.3-4.1,4.2-5c0.8-0.4,3.6,1.8,4.5,3.4c2.3,3.8,4.1,7.9,6.1,11.9
			c6,12,9.3,13.4,22.8,9.5c-3.6-6.8-7.1-13.5-10.8-20.2c-2.9-5.2-4.8-9.5,2.3-13.8c7.2-4.3,6.5-12.3,5.2-19.5
			c-1.1-6.3-4.9-11.3-11.3-11.9C934.5,777.5,921.3,777.1,908.1,776.3z"/>
		<path class="st18" d="M1038.6,911.5c0-8.5-0.5-17.1,0.2-25.5c0.5-6.2-2.2-7.5-7.4-7c-3.2,0.3-6.5,1.2-9.5,0.7
			c-2-0.4-3.7-2.8-5.5-4.4c1.7-1.2,3.4-3.4,5.1-3.4c14.4-0.3,28.7-0.3,43.1-0.1c1.6,0,3.1,2,4.7,3c-1.5,1.5-3,3-4.6,4.4
			c-0.3,0.3-1,0-1.6,0c-16,0.4-16.1,0.4-15.9,16.4c0.2,14.3,1,28.7,0.9,43c0,2.6-2.9,5.1-4.5,7.7c-1.7-2.5-4.7-5-4.9-7.6
			C1038.2,929.6,1038.5,920.6,1038.6,911.5C1038.6,911.5,1038.6,911.5,1038.6,911.5z"/>
		<path class="st19" d="M637.1,537.1c-2.9-4.3-6.3-8.3-8.7-12.8c-15.2-29-34.8-54.6-58.7-76.9c-19.5-18.2-41.3-33.1-64.8-45.9
			c-3.9-2.1-6.3-7-9.4-10.6c-2.3-2.6-4.1-6.2-7-7.4c-29-12.2-59.3-19.4-90.5-22.7c-1.9-0.2-3.7-1.5-5.5-2.3c11.3,1,23,0.6,33.9,3.4
			c21.8,5.6,43.3,12.8,64.7,19.9c3,1,6.3,4.5,7.1,7.5c1.5,5.4,4.5,8.3,9.3,10.8c56.1,29.6,98.1,73.3,127.2,129.5
			C635.9,531.9,636.3,534.6,637.1,537.1z"/>
		<path class="st8" d="M1279.6,894.5c-7.2-8.3-7.9-14-2.8-19c5.3-5.1,18.4-5.5,23.8-0.8c5.1,4.5,4.4,10.1-2.3,18
			c8,11.1,8.6,16.9,2.4,21.6c-6.5,5-21.3,4.4-26.1-1C1270,908,1271.4,902.3,1279.6,894.5z M1288.9,913.7c3-3.9,6.7-7.1,6.1-8.4
			c-1.2-2.8-4.4-6-7.2-6.4c-1.7-0.3-5.5,4.1-5.9,6.7C1281.7,907.5,1285.5,910,1288.9,913.7z M1288.7,892.1c2.8-3.9,5.6-6.1,5.8-8.6
			c0.1-1.7-3.4-5.2-5.2-5.1c-2.3,0.1-6.2,3-6.3,4.8C1283,885.5,1285.9,888,1288.7,892.1z"/>
		<path class="st3" d="M172.9,772c-1.4,1.4-3.5,2.6-3.9,4.3c-1.8,7.3-7.5,11.4-13.6,11.3c-5.6-0.1-12.6-3.1-16.3-7.2
			c-5-5.4-4.3-13.1-0.6-20c2.1-4,3.7-8.2,5-11.1c2.8,1,6.6,2.7,10.7,3.7c7.1,1.7,13,4.2,15.2,12.1c0.4,1.5,2.3,2.6,3.5,3.9
			C173,770,172.9,771,172.9,772z"/>
		<path class="st8" d="M667.3,474.3c13.1,17.6,13.1,17.6-4.6,27c-4.9,2.6-10,4.9-14.7,7.9c-3.9,2.6-5.8,0.9-7.6-2.2
			c-1.5-2.5-3.5-4.9-4.2-7.6c-0.6-2.1-0.3-5.8,1.1-6.7C647,486.3,657.1,480.5,667.3,474.3z"/>
		<path class="st11" d="M1361.1,893.7c-1.2,5.5-1,10.9-3.5,14.5c-2.7,3.8-7.8,7.9-12.1,8.1c-4.3,0.2-10.7-3.3-12.7-7
			c-5.3-9.7-5.2-20.8-0.2-30.6c1.8-3.6,7.8-6.9,11.9-6.9c4.1,0,9.7,3.2,12.1,6.7C1359.6,882.7,1359.8,888.8,1361.1,893.7z
			 M1351.4,894.3c-0.4-2.9-0.4-6.5-1.5-9.7c-0.7-2.2-3-3.8-4.6-5.7c-1.9,1.9-5.1,3.5-5.5,5.6c-1,5.2-1.3,10.7-0.5,15.8
			c0.5,3.2,3.4,5.9,5.2,8.9c2-3,4.2-5.8,5.9-9C1351.2,898.8,1351,896.7,1351.4,894.3z"/>
		<path class="st8" d="M141.9,444.2c-11.6,13.1-11.6,13.1-24.8,0.9c-3.5-3.2-7.3-6.3-11-9.2c-4.1-3.1-5.8-6.2-1-10.2
			c1.6-1.4,2.8-3.2,4.1-4.9c4-4.8,8-5.6,12.6-0.5c3,3.4,6.5,6.3,9.7,9.5C135,434.6,138.5,439.4,141.9,444.2z"/>
		<path class="st7" d="M136.7,397.7c6.4,7,12.5,14.3,19.3,21c4.9,4.8,5.3,8.6-0.4,12.7c-1.7,1.2-3,3-4.5,4.5
			c-2.8-0.8-5.8-1.2-8.2-2.6c-3.4-2.2-6.4-5.2-9.5-7.8c-0.3-0.4-0.6-0.8-1-1.2c-12.9-13.7-12.9-13.7,0.9-27.1
			C134.4,397.3,135.5,397.5,136.7,397.7z"/>
		<path class="st7" d="M608.6,459c-3.1-5-6.3-10-9.4-15c5.8-4.8,11.4-9.9,17.5-14.5c4-3,8.6-5.2,12.9-7.8
			c11.7,13.9,11.7,13.9-2.5,25.5c-4.5,3.7-9,7.4-13.5,11.1C611.9,458.6,610.3,458.8,608.6,459z"/>
		<path class="st8" d="M546.2,401.5c-0.7-0.5-1.4-0.9-2.2-1.4c-1.3-0.9-2.6-1.8-3.9-2.7c-1.6-1-3.2-2.1-4.8-3.1
			c0.3-2.4,0-5.2,1.1-7.3c2.9-5.4,6.1-10.6,9.7-15.5c3-4.1,6.7-7.8,10.1-11.7c16,9.5,16,9.5,5.5,24.8c-3.6,5.2-7.2,10.4-10.8,15.6
			C549.4,400.8,547.8,401.1,546.2,401.5z"/>
		<path class="st11" d="M198,350c0.4-0.1,0.8-0.3,1-0.6c1.4-0.6,2.8-1.3,4.1-1.9c1.8-1,3.6-2.1,5.4-3.1c2.2,0.2,4.4,0.3,6.6,0.5
			c4.8,9.4,9.6,18.8,14.2,28.3c0.7,1.5,0.6,4.9-0.2,5.3c-5,2.5-10.4,4.3-15.6,6.4c-4.8-8.7-9.8-17.3-14.2-26.1
			C198.1,356.2,198.4,352.9,198,350z"/>
		<path class="st7" d="M596,412c3.2-3.3,6.3-6.5,9.5-9.8c1.7,0,3.3,0,5,0c2.8,2.8,6,5.3,8.3,8.5c1.4,1.9,1.3,4.9,1.8,7.5
			c-8.2,7.6-16.4,15.1-24.6,22.7c-4.6-3.4-9.4-6.7-13.8-10.5c-0.6-0.6,0.5-3.9,1.5-5.5c1.6-2.4,4-4.2,6-6.3
			C591.9,416.4,594,414.2,596,412z"/>
		<path class="st7" d="M525.5,388.3c-3.1-1.9-6.6-3.3-9.2-5.7c-1.7-1.5-2.1-4.5-3-6.8c0.8-1.3,1.5-2.6,2.3-4
			c1.4-2.9,2.8-5.8,4.3-8.7c0.8-1.3,1.5-2.7,2.3-4c0.3-0.8,0.7-1.5,1-2.3c0.8-1.4,1.5-2.7,2.3-4.1c0.3-0.8,0.6-1.5,1-2.3
			c2.4-1.4,4.8-2.8,7.2-4.1c0.2,0.3,0.5,0.5,0.9,0.5c1.3,0.8,2.7,1.5,4,2.3c0.7,0.4,1.4,0.9,2.2,1.3c1.4,0.8,2.8,1.5,4.1,2.3
			c0.6,0.5,1.3,1.1,1.9,1.6c-1.6,3.8-2.8,7.7-4.7,11.4c-3.9,7.4-8.1,14.6-12.2,21.9c-0.4,0.1-0.7,0.3-1,0.7
			C527.8,388.2,526.7,388.3,525.5,388.3z"/>
		<path class="st8" d="M198.4,396.9c-0.4,0.1-0.7,0.3-0.9,0.7c-1.6,0.1-3.2,0.2-4.9,0.3c-0.6-0.6-1.1-1.2-1.7-1.8
			c-0.9-1.3-1.7-2.5-2.6-3.8c-0.1-0.4-0.3-0.7-0.6-1c-0.9-1.3-1.7-2.5-2.6-3.8c-4.1-6.2-8.2-12.3-12.3-18.5c0.1-1.2,0.3-2.4,0.4-3.6
			c4.3-2.8,8.6-5.7,12.9-8.5c2.4,1.8,5.5,3.2,7.1,5.5c3.8,5.4,7.3,11.1,10.3,17.1c1.8,3.6,2.5,7.8,3.7,11.8c0,0,0,0,0,0
			c-1.3,0.8-2.6,1.7-3.9,2.5c-0.4,0.1-0.7,0.3-1,0.6C201.1,395.3,199.8,396.1,198.4,396.9z"/>
		<path class="st8" d="M75.3,779.5c-8.9,3.4-17.7,6.9-26.6,10.3c-2.7-4.8-5.4-9.7-8-14.5c0-1.6,0.1-3.1,0.1-4.7
			c12.3-3.8,24.5-7.6,36.8-11.4c1.4,3.7,3.3,7.3,3.9,11c0.4,2.2-1.4,4.7-2.2,7.1C78,778,76.6,778.7,75.3,779.5z"/>
		<path class="st7" d="M59.8,493.6c0.6,0,1.1-0.1,1.7-0.1c10.8,5.9,21.5,11.8,32.3,17.7c-1.8,4.7-3.6,9.3-5.5,14
			c-2.6,0.2-5.1,0.4-7.7,0.5c-0.8-0.3-1.6-0.6-2.4-0.8c-2.4-1.1-4.9-2.3-7.3-3.5c-5.6-2.5-11.3-4.9-16.9-7.4
			c-0.8-0.9-1.7-1.8-2.5-2.7c0.1-1.1,0.1-2.2,0.2-3.3c2.2-4.3,4.3-8.6,6.5-12.9c0,0,0.1-0.1,0.1-0.1
			C58.7,494.6,59.3,494.1,59.8,493.6z"/>
		<path class="st14" d="M393.3,319.3c-0.1,3.2-0.2,6.3-0.3,9.5c-0.4,3.8-0.7,7.6-1.1,11.4c-0.2,1-0.4,2-0.6,3
			c-5.9,0.6-11.8,1.1-17.8,1.7c-0.6-7.5-1.2-15-1.7-22.4c0-2.7,0-5.4,0-8.2c0-1.6,0-3.2,0-4.7c4.3-5.7,10.1-2.6,15.4-2.8
			c4.4-0.2,6.2,2,6,6.3C393,315.2,393.2,317.3,393.3,319.3z"/>
		<path class="st11" d="M95.2,482.3c3,1.8,6,3.6,9,5.3c-0.3,3.1-0.7,6.2-1,9.2c-1.6,2.6-3.3,5.3-4.9,7.9
			c-10.7-5.6-21.5-11-32.2-16.8c-1.1-0.6-1.3-2.8-2-4.2c1.4-2.4,2.8-4.9,4.2-7.3c0.9-1.3,1.7-2.5,2.6-3.8c0.3-0.3,0.5-0.7,0.5-1.1
			c2.1-0.2,4.1-0.4,6.2-0.7c0.3,0.3,0.6,0.5,1,0.7c2.3,1.5,4.6,2.9,6.9,4.4c0.3,0.3,0.6,0.5,1,0.6c1.3,0.8,2.6,1.7,3.9,2.5
			c0.3,0.3,0.6,0.5,1,0.6C92.6,480.6,93.9,481.4,95.2,482.3z"/>
		<path class="st16" d="M1073.7,908.7c0-10.1-0.2-20.2,0.2-30.3c0.1-2.2,2.4-4.4,3.8-6.6c1.5,2,4.3,4,4.4,6.1
			c0.8,19.9,1.1,39.8,1.5,59.8c0.1,4,0.5,8.8-5.5,8.4c-5.8-0.4-4.1-5.2-4.1-8.6c-0.1-9.6,0-19.2,0-28.7
			C1073.8,908.7,1073.7,908.7,1073.7,908.7z"/>
		<path class="st10" d="M451.5,354c-3,0.2-6.1,0.4-9.1,0.6c-7.7-2.4-10.5-7.1-7.1-14.8c0.1-0.3-0.3-0.9-0.5-1.4
			c0.2-1.9,0.4-3.7,0.6-5.6c0.4-1.3,0.8-2.7,1.2-4c0.7-2.6,1.8-5.1,1.9-7.7c0.2-6.1,3.3-7.9,8.9-7c2.8,0.8,5.5,1.7,8.3,2.5
			c1,0.3,1.9,0.5,2.9,0.8c-0.4,4-0.4,8.2-1.2,12.1C455.6,337.7,453.4,345.8,451.5,354z"/>
		<path class="st8" d="M367.3,328.8c-0.5,5.5-1,11-1.5,16.5c-0.8-0.1-1.6-0.3-2.4-0.3c-13.7-0.5-13.7-0.5-16.9-13
			c-0.3-5.8-0.6-11.6-0.9-17.4c-0.2-10.4,7.9-7.4,13.5-8.3c4.6-0.8,6.8,1.2,6.8,6.2C365.9,317.9,366.8,323.3,367.3,328.8z"/>
		<path class="st11" d="M20.8,669.9c0.5-6.7,0.9-13.5,1.4-20.2c11,0.3,22,0.5,32.9,0.8c5.9,4.1,4,10.2,2.5,15.1
			c-0.6,2.1-6,3.6-9.4,3.9c-9,0.7-18.1,0.7-27.1,0.9C21.2,670.3,20.8,669.9,20.8,669.9z"/>
		<path class="st10" d="M266.3,320.6c1-0.2,2-0.4,2.9-0.6c1.4-0.5,2.8-1,4.2-1.5c0.6-0.1,1.2-0.1,1.8-0.2c3.2,13,6.5,26,9.7,38.9
			c-2.9,0.9-5.9,1.8-8.8,2.6c-1.1,0.5-2.2,1-3.4,1.4c-1.1-0.2-2.2-0.3-3.3-0.5c-2.8-8.6-4.8-17.4-8.5-25.6
			C257.8,327.9,259,323.5,266.3,320.6z"/>
		<path class="st7" d="M53.5,738.4c1-0.2,2-0.5,2.9-0.7c2.8-0.8,5.5-1.7,8.3-2.5c1.1,0,2.2-0.1,3.3-0.1c1.2,1.1,2.3,2.2,3.5,3.4
			c0.2,1,0.4,2,0.5,3c0.5,1.4,1,2.8,1.5,4.2c0.2,2.3,0.3,4.6,0.5,6.9c-8.3,2.7-16.8,5.1-25,8.3c-6.6,2.6-11.7,2.7-14.7-4.7
			c-0.2-1-0.4-2-0.6-3c0.7-3.4,1.5-6.9,2.2-10.3c1-0.2,2-0.4,3-0.6c2.8-0.8,5.5-1.6,8.3-2.5c1-0.2,2-0.4,2.9-0.7
			C51.2,738.9,52.3,738.6,53.5,738.4z"/>
		<path class="st10" d="M468,362c-0.8-0.2-1.6-0.3-2.4-0.5c-2.5-1-5-2-7.5-3c-0.7-1.3-1.3-2.5-2-3.8c1.1-2.6,2.5-5.2,3.4-7.9
			c2.9-8.7,5.6-17.5,8.5-26.3c1.1,0,2.2,0,3.3,0c5,2.2,9.9,4.4,14.9,6.6c-0.4,2.4-0.9,4.9-1.3,7.3c-2.9,6.7-6.3,13.1-8.4,20
			C474.9,359.1,472.9,361.8,468,362z"/>
		<path class="st10" d="M290.3,314.1c2-0.2,4.1-0.5,6.1-0.7c8.7-1.5,7.7,6.1,10,10.6c0.2,1,0.5,2,0.7,2.9c0.8,4.4,1.6,8.7,2.4,13.1
			c0.2,1,0.3,2,0.5,3c-0.7,2.9-1.3,5.7-2,8.6c-1,0.2-2,0.4-3,0.6c-2.8,0.8-5.5,1.6-8.3,2.4c-1.1-0.1-2.2-0.1-3.3-0.2
			c-2.9-9.2-5.8-18.3-8.7-27.5c-0.1-0.3-0.3-0.5-0.7-0.6C286.2,322.3,283.8,315.9,290.3,314.1z"/>
		<path class="st10" d="M42.1,606.4c-1-0.2-2-0.3-3-0.5c-4.8-1.1-9.7-2.1-14.5-3.2c-0.2-2-0.4-3.9-0.5-5.9c0.9-4.1,1.8-8.2,2.8-12.3
			c2-0.6,4-1.1,6-1.7c3.8,0.8,7.6,1.7,11.4,2.5c1.5,0.3,3,0.6,4.6,0.9c4.3,1,8.6,1.9,12.9,2.9c1.1,2.9,2.3,5.7,3.4,8.6
			c-1.6,9.1-6.6,11.7-15.3,8.6C47.5,605.5,44.6,606.3,42.1,606.4z"/>
		<path class="st10" d="M65,564.7c3.9,0.9,7.7,2,6.2,7.4c-0.8,2.2-1.6,4.5-2.3,6.7c-0.3,1.5-0.6,3.1-1,4.6
			c-11.2-2.1-22.4-4-33.4-6.7c-1.9-0.5-3-4.3-4.5-6.5c0.3-1.5,0.5-3,0.8-4.5c1-2.7,2.1-5.5,3.1-8.2c0,0,0.1-0.2,0.1-0.2
			c3.4,0.4,6.8,0.8,10.1,1.2c1,0.2,2,0.5,2.9,0.7c2.2,0.7,4.5,1.4,6.7,2.2c2.4,0.6,4.7,1.1,7.1,1.7C62.3,563.6,63.7,564.1,65,564.7z
			"/>
		<path class="st10" d="M60.1,693.8c-1,0.3-2.1,0.6-3.1,0.8c-7.8,1-15.6,2-23.4,3c-0.8,0.1-1.6,0.2-2.4,0.2
			c-2.7-0.2-5.5-0.5-8.2-0.7c0,0-0.1-0.1-0.1-0.1c-0.7-2.5-1.3-4.9-2-7.4c-0.1-1.9-0.1-3.8-0.2-5.6c0-1.7-0.1-3.4-0.1-5.1
			c2.9-0.7,5.8-1.4,8.7-2.2c10.1,0,20.1,0,30.9,0C60.1,682.8,60.1,688.3,60.1,693.8z"/>
		<path class="st19" d="M353,358.5c-6.3,1.3-12.6,3.1-18.9,3.8c-23.2,2.7-45.9,7.6-67.5,16.6c-17.8,7.4-34.9,16.5-52.2,25.1
			c-2.5,1.3-4.7,4-6,6.6c-5.3,10.1-14.3,15.7-24.3,20.2c3.1-2.8,6.4-5.5,9.2-8.6c4.2-4.5,8.1-9.3,12.2-13.9c2.1-2.3,4.2-4.9,6.8-6.5
			c34.6-21.5,71.9-35.3,112.3-40.8C334.1,359.7,343.6,359.3,353,358.5z"/>
		<path class="st10" d="M1264.2,915.7c-1.6,0.2-2.7,0.3-3.8,0.3c-1.3,0-2.7,0-4.9,0c0-10.7,0-21.1,0-32.8c-3.5,1.7-5.7,2.8-9.1,4.5
			c-0.8-2.3-2.6-4.8-2-6.4c1.6-4.5,14.1-9.9,19.8-9.1C1264.2,886.7,1264.2,901.1,1264.2,915.7z"/>
		<path class="st19" d="M149.8,858.4c2.9,2.3,6,4.2,8.5,6.8c30.8,31.6,66.6,55.6,107.7,71.7c4,1.6,7.9,3.7,11.8,5.6
			c-7.2-2.2-14.7-3.8-21.6-6.8c-39.9-17-74.7-41.5-104.2-73.4C151,861.4,150.5,859.8,149.8,858.4z"/>
		<path class="st19" d="M139.5,475.5c-1.6,3.2-2.8,6.7-5,9.5c-18.1,23.3-31.3,49.2-40.9,76.9c-5,14.4-7.9,29.5-11.9,44.2
			c-0.6,2.2-2.1,4.1-3.2,6.1c2.1-10.9,3.4-22,6.3-32.6c10.1-36.9,27.3-70.3,50.7-100.6C136.5,477.7,138.2,476.7,139.5,475.5z"/>
		<path class="st17" d="M208.5,437.2c2.7-2.2,5.8-6.7,8.1-6.3c11.7,1.9,19.1-6.4,27.9-11c19.2-9.8,38.7-18.4,59.9-22.6
			c10.3-2,20.6-4.2,31-6.1c1.4-0.3,3,0.7,4.5,1c-10,2.2-20,4.4-30,6.5c-26.2,5.6-50.6,15.6-73.7,29.1c-5.4,3.2-10.4,7-17.6,5.5
			C215.6,432.9,211.9,435.9,208.5,437.2z"/>
		<path class="st19" d="M1221.7,945.4c0.6-1.8,1.6-3.5,1.6-5.3c0.1-20.8,0-41.6-0.1-62.4c0-1.3-1.1-2.6-3.4-3.7
			c0,20.1,0,40.2,0,60.2c-0.5,0.3-1,0.7-1.5,1c-1.6-1.9-3.1-3.9-4.7-5.8c1.3-2.3,3.8-4.6,3.8-6.9c0-13.3-0.7-26.5-1.1-39.8
			c-0.1-1.9-0.6-4.1,0.2-5.5c1.2-2.2,3.4-3.8,5.2-5.6c1.3,1.9,3.7,3.7,3.8,5.7c0.4,8.5,0.1,17,0.2,25.5c0.2,11.9,0.6,23.9,0.6,35.8
			C1226.3,941.6,1227.8,946.3,1221.7,945.4z"/>
		<path class="st14" d="M217.9,859.8c-4.7,0.2-15.9-6.4-16.7-10.5c-0.4-1.8,1.1-4.2,2.2-6.1c1.6-3,3.6-5.8,5.4-8.7
			c0,0-0.1,0.1-0.1,0.1c7.8-0.7,17.4,6.8,17.9,14C223.8,852.4,220.8,856.1,217.9,859.8z"/>
		<path class="st11" d="M801.9,909.4c0.9,1.4,2.9,3.2,2.6,4.2c-2.4,8.7-5.1,17.3-8.2,25.7c-0.6,1.7-3.5,3.7-5.2,3.7
			c-1.6,0-3.9-2.5-4.5-4.3c-4.7-14.8-9-29.7-13.7-44.4c-1.3-4.1-3.3-8-5-12c-0.7,0.1-1.4,0.2-2.1,0.3c-0.9,2.2-1.9,4.3-2.8,6.5
			c-0.7-0.2-1.3-0.4-2-0.7c1.6-4.5,2.9-12.7,5-12.9c6.9-0.8,6,6.7,7.8,11.3c3,7.7,5.9,15.5,8.8,23.2c1,3,2,6,3,8.9
			c1.2,5.9,2.4,11.9,3.6,17.8c0.9,0,1.9,0,2.8,0c5.5-7,7.3-15.3,8.3-24.1C800.9,911.4,801.4,910.4,801.9,909.4z"/>
		<path class="st17" d="M424.9,395.7c6.6,0.9,13.5,0.8,19.7,2.7c11.1,3.4,21.8,8.3,32.9,11.8c3.3,1.1,7.4-0.2,11.1-0.6
			c2.7-0.3,6.1-2.3,8-1.3c12.9,6.9,25.4,14.4,38,21.8c1.2,0.7,1.7,2.5,2.5,3.9c-10.6-6-21.1-12.1-31.7-18.1
			c-6.2-3.5-12.3-7.8-19.6-1.7c-1.2,1-4.1,0.6-6,0c-17.5-5.5-34.9-11.2-52.3-16.9C426.5,397.1,425.7,396.3,424.9,395.7z"/>
		<path class="st19" d="M81.7,725.4c3.8,10.9,7.8,21.8,11.5,32.7c8.7,25.6,20.9,49.4,36.1,71.6c2.3,3.4,4,7.3,6,11
			c-7.6-10.7-16-21-22.7-32.3c-14.1-24-23.6-49.9-30.7-76.7C81.4,729.7,81.7,727.5,81.7,725.4z"/>
		<path class="st18" d="M323.1,311.7c0.5-0.6,2.1-2.5,3.8-4.5c1.9,2,5.1,3.9,5.4,6.2c1.6,9.4,2.5,18.9,3.1,28.5c0.1,1.9-2.3,4-3.5,6
			c-1.7-1.5-4.6-2.9-4.9-4.7C325.5,333.5,324.5,323.7,323.1,311.7z"/>
		<path class="st19" d="M360.7,949.5c14-0.4,27.9-0.9,41.9-1.2c2,0,4.1,0.6,6.1,0.9c-21.6,6-43.7,4.3-65.4,2.5
			c-20.5-1.8-40.7-6-61.1-9.1c5.4-0.7,10.9-2.6,16.1-1.9C319.1,943.2,339.9,946.5,360.7,949.5z"/>
		<path class="st18" d="M89.9,446.5c0.9,0.5,1.8,1,2.6,1.6c8.1,6,16.3,11.9,24.2,18.2c1.6,1.3,1.7,4.3,2.4,6.5
			c-2.3,0.2-5.3,1.5-6.8,0.5c-8.4-5.5-16.6-11.5-24.6-17.6c-1.4-1.1-2.7-3.5-2.6-5.2c0-2,1.6-3.9,2.5-5.9
			C88.4,445.3,89.2,445.9,89.9,446.5z"/>
		<path class="st18" d="M33.8,622.9c7.1,0.8,14.3,1.2,21.3,2.5c2.2,0.4,3.9,3.1,5.9,4.7c-2.1,1.2-4.2,3.4-6.2,3.4
			c-9.8-0.3-19.6-1.1-29.3-2.2c-1.9-0.2-3.5-3-5.2-4.5c2.1-1.3,4.1-3.1,6.4-3.7c2.2-0.6,4.7,0.1,7.1,0.3
			C33.8,623.2,33.8,623.1,33.8,622.9z"/>
		<path class="st18" d="M90.3,790.6c4.1,4.7,3.7,7.5-1.3,10c-8.3,4.1-16.3,8.8-24.8,12.6c-2,0.9-5.2-0.9-7.8-1.4
			c1.2-2.2,1.9-5.3,3.7-6.3C69.9,800.3,80,795.6,90.3,790.6z"/>
		<path class="st18" d="M421.2,312.7c-1.7,11.6-3,21.6-4.9,31.5c-0.3,1.7-3.4,3-5.2,4.4c-1.1-1.6-3.2-3.2-3.1-4.7
			c1.1-10.3,2.4-20.5,4.3-30.7c0.3-1.9,3.3-3.2,5-4.8C418.9,310.2,420.5,311.9,421.2,312.7z"/>
		<path class="st16" d="M45.6,530.2c11.2,4.2,21.4,8,31.5,12.1c1.1,0.5,2.1,3.8,1.6,5c-0.6,1.2-3.5,2.6-4.8,2.2
			c-10.1-3.3-20.1-6.8-30-10.7c-1.5-0.6-3.2-3.8-2.8-5.2C41.4,532.1,44.2,531.2,45.6,530.2z"/>
		<path class="st18" d="M651.1,451.2c2,1.5,4.2,2.3,4.5,3.6c0.4,1.7-0.1,4.5-1.3,5.4c-8.7,6.4-17.7,12.6-26.8,18.5
			c-1.1,0.7-3.9,0.5-4.9-0.5c-1-0.9-1.4-4.2-0.7-4.7C631.5,466,641.1,458.8,651.1,451.2z"/>
		<path class="st16" d="M592.4,387.2c-0.2,0.9-0.2,1.2-0.4,1.4c-7.7,9.3-15.4,18.7-23.4,27.9c-0.5,0.6-3.4,0.1-4-0.8
			c-0.9-1.3-1.5-3.9-0.7-4.9c6.9-9.1,14-18,21.2-26.7c0.7-0.9,3.4-0.7,4.9-0.1C591.2,384.5,591.8,386.3,592.4,387.2z"/>
		<path class="st18" d="M237.3,330.7c1.2,1.5,2.9,2.9,3.6,4.6c3.8,8.8,7.6,17.6,10.8,26.6c0.7,2-1,4.8-1.6,7.2
			c-2.1-1.4-5.1-2.3-6-4.3c-4.2-8.6-8-17.4-11.3-26.4c-0.8-2.1,1-5.2,1.6-7.8C235.5,330.8,236.4,330.8,237.3,330.7z"/>
		<path class="st18" d="M62.1,710.6c0.8,0.7,3.3,2.1,3.1,3.2c-0.3,1.8-1.9,4.5-3.4,4.9c-9.7,2.5-19.6,4.7-29.5,6.4
			c-2,0.3-4.5-2.2-6.7-3.4c1.5-1.8,2.8-4.7,4.7-5.2C40.4,714.2,50.6,712.6,62.1,710.6z"/>
		<path class="st5" d="M179.2,409.8c-0.5,0.8-1.1,2.5-2,2.7c-1.6,0.3-4.1,0.2-4.9-0.7c-7.3-8.5-14.4-17.1-21.2-25.9
			c-0.7-0.9,0.2-4,1.4-5.2c0.8-0.9,4.1-1.1,4.7-0.3c7.4,9.1,14.5,18.3,21.6,27.6C179,408.1,179,408.8,179.2,409.8z"/>
		<path class="st16" d="M493.1,373.7c-1.2-3.1-3.1-5.6-2.5-7.1c3.9-10.1,8.2-20.1,12.8-29.9c0.6-1.4,4-2.5,5.6-2
			c1.2,0.3,2.7,3.9,2.2,5.3c-4,9.8-8.4,19.5-12.8,29.1C497.7,370.5,495.8,371.3,493.1,373.7z"/>
		<path class="st14" d="M269.7,870.8c3,1.3,6,2.7,9,4c0.9,7.9-1.5,14.5-7.8,19.5c-1.2-0.5-2.5-1-3.7-1.5c-2.5-1.1-5-2.3-7.4-3.4
			c-1.2-0.6-2.5-1.2-3.7-1.9c2.6-6.3,5.2-12.5,7.8-18.8c0.6,0,1.1,0,1.7,0C267,869.4,268.4,870.1,269.7,870.8z"/>
		<path class="st0" d="M60.1,693.8c0-5.5,0-11,0-17c-10.8,0-20.8,0-30.9,0c0.8-1,1.5-2.1,2.2-3c-3.3-1.2-6.8-2.4-10.2-3.5
			c9-0.2,18.1-0.2,27.1-0.9c3.3-0.3,8.7-1.8,9.4-3.9c1.4-4.9,3.4-11-2.5-15.1c2.1,1.3,5.9,2.4,6.1,3.9c1,11.6,1.4,23.2,1.7,34.8
			C62.9,690.7,61.1,692.2,60.1,693.8z"/>
		<path class="st17" d="M396.1,943.1c-11.8,0.7-23.6,1.5-35.5,2.2c-20.2,0.4-40.1-2.1-59.3-8.4c-4.7-1.5-8.5-6.1-12.7-9.2
			c17.1,11.8,37.3,12.5,56.8,14.3C362.2,943.6,379.2,942.9,396.1,943.1z"/>
		<path class="st10" d="M1009.4,876.1c0.2,17.9,0.3,35.8,0.5,53.8c-0.7,4.8-1.5,9.5-2.2,14.3c-0.9,0-1.9-0.1-2.8-0.1
			c-0.3-2.7-0.9-5.4-1-8.1c-0.5-19-0.8-38.1-1.2-57.1C1002.6,872.4,1006.1,874.4,1009.4,876.1z"/>
		<path class="st20" d="M1009.4,876.1c-3.3-1.7-6.8-3.7-6.7,2.7c0.3,19,0.7,38.1,1.2,57.1c0.1,2.7,0.6,5.4,1,8.1
			c0.9,0,1.9,0.1,2.8,0.1c0.7-4.8,1.5-9.5,2.2-14.3c0.6,4.1,1.7,8.2,1.4,12.1c-0.1,1.6-3.4,4.2-5.2,4.2c-1.7-0.1-4-2.7-4.8-4.7
			c-0.8-2-0.2-4.7-0.2-7.1c-0.4-18.8-1-37.6-1.1-56.4c0-2.2,3.1-4.4,4.7-6.6C1006.3,872.9,1007.8,874.5,1009.4,876.1z"/>
		<path class="st0" d="M207.3,391.3c-1.2-3.9-1.9-8.2-3.7-11.8c-3-5.9-6.5-11.6-10.3-17.1c-1.7-2.3-4.7-3.7-7.1-5.5
			c4-2.3,7.9-4.7,11.9-7c0.4,2.9,0.1,6.2,1.3,8.7c4.5,8.9,9.4,17.4,14.2,26.1C211.5,387,209.4,389.2,207.3,391.3z"/>
		<path class="st0" d="M290.3,314.1c-6.6,1.8-4.1,8.2-6.2,12.3c-0.5,0.8-1,1.7-1.4,2.5c0.2,0.1,0.5,0.3,0.7,0.4
			c0.5-0.8,0.9-1.5,1.4-2.3c2.9,9.2,5.8,18.3,8.7,27.5c-2.8,0.9-5.7,1.8-8.5,2.8c-3.2-13-6.5-26-9.7-38.9c2.2,1.1,4.5,2.1,6.9,3.2
			C282.8,317.9,281.7,310.9,290.3,314.1z"/>
		<path class="st0" d="M34.2,756.1c3.1,7.4,8.1,7.3,14.7,4.7c8.1-3.2,16.6-5.6,25-8.3c1.2,2.2,2.4,4.5,3.6,6.7
			c-12.3,3.8-24.5,7.6-36.8,11.4c2.1-2,4.2-3.9,6-5.6c-3.1-0.2-7.2,0.5-10.2-1C34.9,763.3,35,758.9,34.2,756.1z"/>
		<path class="st0" d="M64.1,483.8c0.6,1.4,0.9,3.6,2,4.2c10.6,5.7,21.4,11.2,32.2,16.8c-1.5,2.1-3,4.3-4.5,6.4
			c-10.8-5.9-21.5-11.8-32.3-17.7c0.5-1.4,1.1-2.8,1.4-4.2C63.5,487.5,63.8,485.7,64.1,483.8z"/>
		<path class="st0" d="M468,320.5c-2.8,8.8-5.5,17.6-8.5,26.3c-0.9,2.7-2.3,5.3-3.4,7.9c-1.5-0.2-3.1-0.5-4.6-0.7
			c2-8.2,4.1-16.3,5.8-24.5c0.8-3.9,0.8-8.1,1.2-12.1C461.6,318.4,464.8,319.4,468,320.5z"/>
		<path class="st21" d="M529.9,387.5c4.1-7.3,8.3-14.5,12.2-21.9c1.9-3.6,3.2-7.6,4.7-11.4c3.2,1.9,6.3,3.8,9.5,5.6
			c-3.4,3.9-7.1,7.5-10.1,11.7c-3.6,4.9-6.8,10.2-9.7,15.5c-1.1,2-0.8,4.8-1.1,7.3C533.5,392.1,531.7,389.8,529.9,387.5z"/>
		<path class="st0" d="M596.1,440.9c8.2-7.6,16.4-15.1,24.6-22.7c3,1.2,6,2.3,8.9,3.5c-4.3,2.6-8.9,4.8-12.9,7.8
			c-6,4.5-11.7,9.6-17.5,14.5C598.1,443,597.1,441.9,596.1,440.9z"/>
		<path class="st19" d="M1170.1,941.6c6.1,3.3,6.8-0.4,6.7-5.1c-0.4-15.1-1-30.2-1.4-45.2c-0.1-2.6,0-5.2,0-7.8
			c0.9-0.4,1.7-0.9,2.6-1.3c1.4,2.1,2.7,4.1,4.1,6.2c-1.4,2.3-4,4.6-4,7c0.1,14.6,1,29.2,1,43.8c0,2.4-2.9,4.8-4.5,7.2
			C1173.1,944.7,1171.6,943.1,1170.1,941.6z"/>
		<path class="st17" d="M287.7,927c-20.1-9.1-40.2-18-60.2-27.3c-2.4-1.1-4.1-3.8-6.1-5.7c2.8,1.4,5.6,2.8,8.4,4.1
			c16.8,7.8,33.6,15.6,50.4,23.6C282.9,923,285.2,925.2,287.7,927z"/>
		<path class="st16" d="M208.8,834.6c-3.2,2.2-6.3,4.7-9.7,6.4c-2.1,1-4.8,0.6-7.2,0.8c0.3-2.3,0.1-4.8,1-6.8
			c0.8-1.8,2.6-3.4,4.4-4.5c2.6-1.8,5.6-3.1,8.4-4.7C206.7,828.7,207.7,831.7,208.8,834.6C208.8,834.6,208.8,834.6,208.8,834.6z"/>
		<path class="st18" d="M192.4,812.8c-5.1,3.8-10.2,7.6-15.5,11.1c-0.5,0.3-3.1-1.4-3.5-2.5c-0.5-1.4-0.3-3.9,0.7-4.9
			c3.4-3.3,7-6.6,11.1-8.9c1.5-0.8,4.6,1.3,7,2.1C192.2,810.7,192.3,811.8,192.4,812.8z"/>
		<path class="st0" d="M30.1,570.1c1.5,2.3,2.6,6.1,4.5,6.5c11,2.7,22.2,4.6,33.4,6.7c-3.6,1-7.3,1.9-10.3,2.7c0.6,0.5,2.3,1.8,4,3
			c-4.3-1-8.6-1.9-12.9-2.9c1.5-3.6,1.5-3.6-5.5-3.7c0.3,1,0.6,1.9,1,2.8c-3.8-0.8-7.6-1.7-11.4-2.5c1.1-0.6,2.2-1.2,3.3-1.8
			C33.5,577.7,23.4,578.5,30.1,570.1z"/>
		<path class="st7" d="M1019.3,780.1c-7.9-1-15.8-2.3-23.7-2.8c-1.4-0.1-3.6,2.7-4.3,4.6c-2.9,7.3-5.2,14.8-7.9,22.2
			c-0.9,2.3-2.4,4.3-3.7,6.5c3.2-10.9,4.9-22.6,10.2-32.4c4.6-8.5,15.1-2.5,22.9-3.5C1014.6,774.4,1017,778.2,1019.3,780.1z"/>
		<path class="st11" d="M758.4,914.7c1.2-5.5,2.5-11.1,3.7-16.6c0.5,0,0.9-0.1,1.4-0.1c0,3.8-0.1,7.5,0,11.3c0.1,1.8,0.7,3.6,1,5.4
			c0,4.2,0,8.4,0,12.5c-1.2,5-2.4,10-3.5,15.1c-0.4-0.1-0.7-0.1-1.1-0.2c-0.6-5.4-1.2-10.8-1.8-16.2
			C758.3,922.1,758.3,918.4,758.4,914.7z"/>
		<path class="st21" d="M367.3,328.8c-0.5-5.5-1.3-10.9-1.3-16.4c0-5-2.1-6.9-6.8-6.2c-5.6,0.9-13.8-2.1-13.5,8.3
			c-0.6-2.5-2.5-5.9-1.5-7.5c4.5-7,12.1-3.5,18.3-3.7c2-0.1,4.3,4,6.3,6.3c1.2,1.4,2.1,3.1,3.1,4.6c0,2.7,0,5.4,0,8.2
			C370.3,324.6,368.8,326.7,367.3,328.8z"/>
		<path class="st17" d="M343,392c0.5-0.6,1-1.7,1.5-1.7c17.8-0.1,35.6-0.1,53.4,0c0.5,0,1,1.1,1.5,1.7c-4.7,0.1-9.4,0.4-14.1,0.4
			C371.2,392.3,357.1,392.1,343,392z"/>
		<path class="st18" d="M251.2,881.7c-2.2-0.2-5.4,0.4-6.4-0.8c-1-1.3-0.5-4.4,0.3-6.4c1-2.7,2.5-5.3,4.3-7.5
			c1.3-1.7,3.4-2.7,5.2-4.1c1.3,1.7,2.7,3.5,4,5.2C256.1,872.6,253.7,877.1,251.2,881.7z"/>
		<path class="st17" d="M581.9,474.3c4.6,4.5,10.1,8.4,13.6,13.7c7,10.3,12.9,21.3,19.2,32c-8-11.2-16-22.4-24-33.6
			C587.8,482.3,584.8,478.3,581.9,474.3z"/>
		<path class="st21" d="M271,894.3c6.3-5,8.7-11.6,7.8-19.5c7.8,4.7,8.3,8.7,2.7,22.7C278,896.4,274.5,895.4,271,894.3z
			 M280.8,887.6c-0.4-0.2-0.9-0.4-1.3-0.7c-0.4,0.9-0.7,1.9-1.1,2.8c0.4,0.2,0.7,0.3,1.1,0.5C280,889.3,280.4,888.4,280.8,887.6z"/>
		<path class="st19" d="M183.3,431.5c-6.8,6.9-13.6,13.8-20.5,20.6c-4.1,4-8.6,7.6-13,11.3C161,452.8,172.1,442.2,183.3,431.5z"/>
		<path class="st12" d="M758.2,925.9c0.6,5.4,1.2,10.8,1.8,16.2c0.4,0.1,0.7,0.1,1.1,0.2c1.2-5,2.4-10,3.5-15.1
			c0.1,4.7,0.8,9.5,0.2,14.1c-0.3,1.8-3.5,3.2-5.4,4.9c-1.2-1.9-3.4-3.9-3.3-5.7C756.2,935.5,757.4,930.7,758.2,925.9z"/>
		<path class="st15" d="M234.4,850.4c-0.7,3.7-0.8,7.6-2.3,10.9c-1.3,3-4.2,5.3-6.5,8c-2.8-2.4-7.5-4.2-2.8-8.9
			C226.8,857.1,230.6,853.7,234.4,850.4z"/>
		<path class="st17" d="M185.3,866.1c-4.6-3.6-9.9-6.7-13.8-11c-5.6-6.1-10.1-13-15.1-19.6C166,845.8,175.6,855.9,185.3,866.1z"/>
		<path class="st0" d="M266.3,320.6c-7.4,2.9-8.5,7.3-5.2,14.6c3.7,8.2,5.7,17,8.5,25.6c-1.4-2-3.4-3.7-4.2-5.9
			c-3-7.9-5.8-15.8-8.3-23.8C254.6,322.9,257,320.4,266.3,320.6z"/>
		<path class="st20" d="M800.3,912.5c-1,8.7-2.8,17.1-8.3,24.1c-0.9,0-1.9,0-2.8,0c-1.2-5.9-2.4-11.9-3.6-17.8
			c1.8,3.7,3.6,7.4,6.1,12.7C794.8,924.6,797.6,918.5,800.3,912.5z"/>
		<path class="st21" d="M393.3,319.3c-0.1-2.1-0.2-4.2-0.1-6.3c0.2-4.3-1.6-6.6-6-6.3c-5.2,0.3-11.1-2.9-15.4,2.8
			c-0.3-0.7-1.1-1.8-1-1.9c2-1.6,4.3-4.5,6.2-4.4c6,0.5,12.2,1.4,17.6,3.8C395.8,307.6,393.8,315.1,393.3,319.3z"/>
		<path class="st0" d="M133.4,425.4c3.1,2.7,6.1,5.7,9.5,7.8c2.3,1.5,5.4,1.8,8.2,2.6c-3,2.8-6.1,5.6-9.1,8.3
			c-3.5-4.8-6.9-9.6-10.4-14.4C132.1,428.3,132.8,426.9,133.4,425.4z"/>
		<path class="st21" d="M346.5,332c3.2,12.4,3.2,12.4,16.9,13c0.8,0,1.6,0.2,2.4,0.3c-6.1,0.6-12.1,1.3-18.2,1.9
			C347.2,342.1,346.8,337.1,346.5,332z"/>
		<path class="st21" d="M251.2,881.7c2.4-4.5,4.9-9.1,7.3-13.6c1.8,0.2,3.6,0.5,5.4,0.7c-2.6,6.3-5.2,12.5-7.8,18.8
			C254.5,885.6,252.8,883.6,251.2,881.7z"/>
		<path class="st14" d="M1325.5,910.9c-3.2,2.5-5.1,5.1-6.9,5.1c-1.9,0-3.7-2.6-5.6-4.1c1.7-1.9,3.1-4.8,5.2-5.4
			C1319.7,906,1322,908.6,1325.5,910.9z"/>
		<path class="st0" d="M42.1,606.4c2.6-0.1,5.4-0.8,7.7,0c8.7,3.1,13.7,0.5,15.3-8.6c2.3,9.8-1.1,14.1-10.5,12.4
			C50.2,609.4,46.2,607.6,42.1,606.4z"/>
		<path class="st17" d="M559.4,451.9c7.3,7.2,14.5,14.3,21.8,21.5C574,466.2,566.7,459.1,559.4,451.9z"/>
		<path class="st0" d="M468,362c4.9-0.2,7-2.8,8.4-7.5c2.2-6.9,5.5-13.4,8.4-20c-2.8,9-5.4,18-8.8,26.8
			C475.6,362.3,470.8,361.7,468,362z"/>
		<path class="st17" d="M221.3,893.9c-8-5.8-16-11.6-24-17.5C205.3,882.3,213.3,888.1,221.3,893.9z"/>
		<path class="st21" d="M234.4,850.4c-3.8,3.3-7.7,6.7-11.5,10c-1.7-0.2-3.3-0.4-5-0.6c2.9-3.7,5.8-7.5,8.7-11.2
			C229.3,849.2,231.8,849.8,234.4,850.4z"/>
		<path class="st19" d="M75.1,682.2c1,7.5,2,15,3,22.5C77.1,697.3,76.1,689.8,75.1,682.2z"/>
		<path class="st17" d="M537.2,434.2c6.8,5.4,13.7,10.7,20.5,16.1C550.9,444.9,544.1,439.5,537.2,434.2z"/>
		<path class="st19" d="M78.1,617c-1,7-1.9,14-2.9,21C76.2,631,77.1,624,78.1,617z"/>
		<path class="st0" d="M33.6,697.7c7.8-1,15.6-2,23.4-3C49.2,695.6,41.4,696.7,33.6,697.7z"/>
		<path class="st17" d="M402.5,392.3c6.9-2.1,13.4-1.2,19.3,3.1C415.4,394.4,408.9,393.3,402.5,392.3z"/>
		<path class="st0" d="M434.8,338.4c0.2,0.5,0.7,1.1,0.5,1.4c-3.4,7.7-0.7,12.5,7.1,14.8c-3.5-0.8-9.9-1.5-9.9-2.5
			C432.3,347.6,433.9,343,434.8,338.4z"/>
		<path class="st21" d="M373.5,344.9c5.9-0.6,11.8-1.1,17.8-1.7c0.2,0.9,0.9,2.3,0.5,2.7C388.7,349.3,377.6,348.6,373.5,344.9z"/>
		<path class="st19" d="M135.4,840.8c4.3,5.3,8.5,10.5,12.8,15.8C143.9,851.3,139.6,846,135.4,840.8z"/>
		<path class="st0" d="M306.4,324c-2.3-4.6-1.3-12.1-10-10.6c2.8-0.3,7.7-1.4,7.9-0.9C305.7,316.1,305.9,320.1,306.4,324z"/>
		<path class="st17" d="M194.2,448.5c4.7-3.7,9.4-7.4,14.2-11.1C203.6,441.1,198.9,444.8,194.2,448.5z"/>
		<path class="st0" d="M40.7,775.3c2.7,4.8,5.4,9.7,8,14.5c-1.1,0.1-3.1,0.4-3.2,0.1C43.8,785.1,42.2,780.2,40.7,775.3z"/>
		<path class="st0" d="M24.6,602.7c4.8,1.1,9.7,2.1,14.5,3.2C34.2,604.8,29.4,603.8,24.6,602.7z"/>
		<path class="st0" d="M486.1,327.1c-5-2.2-9.9-4.4-14.9-6.6C477,320.9,483.2,320.3,486.1,327.1z"/>
		<path class="st19" d="M149.7,463.5c-3.2,3.7-6.3,7.4-9.5,11.1C143.4,470.9,146.5,467.2,149.7,463.5z"/>
		<path class="st17" d="M197.2,876.4c-3.7-3.2-7.3-6.3-11-9.5C189.9,870,193.6,873.2,197.2,876.4z"/>
		<path class="st19" d="M78.5,709.4c0.9,4.3,1.8,8.6,2.7,13C80.3,718.1,79.4,713.7,78.5,709.4z"/>
		<path class="st17" d="M420,940c-5.1,0.9-10.2,1.9-15.3,2.8C409.8,941.9,414.9,941,420,940z"/>
		<path class="st19" d="M74.9,653.8c0,4.2-0.1,8.4-0.1,12.6C74.9,662.2,74.9,658,74.9,653.8z"/>
		<path class="st0" d="M58.1,495.1c-2.2,4.3-4.3,8.6-6.5,12.9C53.8,503.7,56,499.4,58.1,495.1z"/>
		<path class="st0" d="M309.6,340c-0.8-4.4-1.6-8.7-2.4-13.1C308,331.3,308.8,335.6,309.6,340z"/>
		<path class="st7" d="M989.3,842.3c1.2-3.7,2.4-7.4,3.5-11.1C991.7,835,990.5,838.7,989.3,842.3z"/>
		<path class="st0" d="M35.8,742.9c-0.7,3.4-1.5,6.9-2.2,10.3C28.4,746.3,28.9,743.9,35.8,742.9z"/>
		<path class="st17" d="M601.3,833.1c-2.2,0.5-4.3,1-6.5,1.5c1.7-2,3.5-3.9,5.2-5.9C600.5,830.2,600.9,831.7,601.3,833.1z"/>
		<path class="st21" d="M391.9,340.2c0.4-3.8,0.7-7.6,1.1-11.4C392.6,332.6,392.3,336.4,391.9,340.2z"/>
		<path class="st0" d="M26.8,584.5c-0.9,4.1-1.8,8.2-2.8,12.3C24.9,592.7,25.9,588.6,26.8,584.5z"/>
		<path class="st0" d="M308,351.6c0.7-2.9,1.3-5.7,2-8.6C313.3,346.8,315.9,350.4,308,351.6z"/>
		<path class="st19" d="M413.4,948.7c3.8-0.8,7.5-1.5,11.3-2.3C421,947.1,417.2,947.9,413.4,948.7z"/>
		<path class="st17" d="M436.2,936.6c-3.6,1-7.1,1.9-10.7,2.9C429,938.5,432.6,937.6,436.2,936.6z"/>
		<path class="st0" d="M44.2,558.4c-3.4-0.4-6.7-0.8-10.1-1.2C38.1,551.9,41.1,555.3,44.2,558.4z"/>
		<path class="st20" d="M655.3,877.8c3.2,0,6.4,0,9.6,0C661.7,877.7,658.5,877.7,655.3,877.8z"/>
		<path class="st19" d="M431.1,945.5c3.2-0.8,6.4-1.7,9.7-2.5C437.5,943.8,434.3,944.7,431.1,945.5z"/>
		<path class="st0" d="M103.2,496.9c0.3-3.1,0.7-6.2,1-9.2C108.9,491.2,108.7,492.8,103.2,496.9z"/>
		<path class="st21" d="M533.6,346.4c-2.4,1.4-4.8,2.8-7.2,4.1c1.1-2,2.1-4.1,3.5-6C530.1,344.3,532.4,345.7,533.6,346.4z"/>
		<path class="st19" d="M1170.4,917.7c-0.1,2.7-0.1,5.5-0.2,8.2C1170.3,923.2,1170.4,920.4,1170.4,917.7z"/>
		<path class="st0" d="M455.5,316.6c-2.8-0.8-5.5-1.7-8.3-2.5C450,314.9,452.8,315.7,455.5,316.6z"/>
		<path class="st0" d="M596,412c-2.1,2.2-4.2,4.4-6.2,6.6C591.9,416.4,594,414.2,596,412z"/>
		<path class="st0" d="M22.9,697.2c2.7,0.2,5.5,0.5,8.2,0.7C28.1,700.7,25.3,701.4,22.9,697.2z"/>
		<path class="st17" d="M449,933.2c-2.7,0.9-5.3,1.8-8,2.6C443.6,934.9,446.3,934.1,449,933.2z"/>
		<path class="st0" d="M33.9,557.4c-1,2.7-2.1,5.5-3.1,8.2C31.9,562.9,32.9,560.2,33.9,557.4z"/>
		<path class="st19" d="M631.3,541.7c2.4-0.1,4.7-0.2,7.1-0.3c-0.6,5.6-4.3,2.7-7,2.5C631.3,543.1,631.3,542.4,631.3,541.7z"/>
		<path class="st0" d="M64.7,735.2c-2.8,0.8-5.5,1.7-8.3,2.5C59.2,736.8,61.9,736,64.7,735.2z"/>
		<path class="st0" d="M296.8,354.6c2.8-0.8,5.5-1.6,8.3-2.4C302.3,353,299.6,353.8,296.8,354.6z"/>
		<path class="st20" d="M677.9,874.4c-2.7-1-5.5-2.1-8.2-3.1C672.4,872.3,675.1,873.4,677.9,874.4z"/>
		<path class="st0" d="M215.2,344.8c-2.2-0.2-4.4-0.3-6.6-0.5C211.2,338.6,213.3,340,215.2,344.8z"/>
		<path class="st0" d="M80.7,525.7c2.6-0.2,5.1-0.4,7.7-0.5C86.2,530.2,84.4,530.3,80.7,525.7z"/>
		<path class="st0" d="M47.1,739.8c-2.8,0.8-5.5,1.6-8.3,2.5C41.5,741.4,44.3,740.6,47.1,739.8z"/>
		<path class="st0" d="M68.9,578.8c0.8-2.2,1.6-4.5,2.3-6.7C70.5,574.3,69.7,576.5,68.9,578.8z"/>
		<path class="st0" d="M53.8,561.3c-2.2-0.7-4.5-1.4-6.7-2.2C49.4,559.9,51.6,560.6,53.8,561.3z"/>
		<path class="st0" d="M85.5,476.1c-2.3-1.5-4.6-2.9-6.9-4.4C80.9,473.1,83.2,474.6,85.5,476.1z"/>
		<path class="st0" d="M77.6,471c-2.1,0.2-4.1,0.4-6.2,0.7c0.8-1.1,1.8-3.3,2.2-3.1C75.1,468.9,76.3,470.1,77.6,471z"/>
		<path class="st21" d="M259.8,889.4c2.5,1.1,5,2.3,7.4,3.4C264.8,891.7,262.3,890.6,259.8,889.4z"/>
		<path class="st0" d="M70.9,521.4c2.4,1.2,4.9,2.3,7.3,3.5C75.8,523.7,73.3,522.6,70.9,521.4z"/>
		<path class="st0" d="M458.1,358.4c2.5,1,5,2,7.5,3C463.1,360.5,460.6,359.5,458.1,358.4z"/>
		<path class="st19" d="M514.3,913.9c2.3-1.3,4.6-2.7,6.8-4C518.9,911.3,516.6,912.6,514.3,913.9z"/>
		<path class="st19" d="M373.5,358.1c-2.1,0-4.1,0.1-6.2,0.1C369.4,358.2,371.4,358.2,373.5,358.1z"/>
		<path class="st19" d="M466.3,935.8c2.5-1.1,4.9-2.1,7.4-3.2C471.2,933.7,468.7,934.8,466.3,935.8z"/>
		<path class="st19" d="M456.6,938.9c2.1-0.8,4.3-1.6,6.4-2.4C460.9,937.3,458.8,938.1,456.6,938.9z"/>
		<path class="st0" d="M20.8,689.7c0.7,2.5,1.3,4.9,2,7.4C22.1,694.6,21.4,692.2,20.8,689.7z"/>
		<path class="st17" d="M544.9,884.6c-1.8,1.4-3.5,2.7-5.3,4.1C541.4,887.4,543.2,886,544.9,884.6z"/>
		<path class="st19" d="M1174,872.3c-1.3,1.3-2.6,2.7-3.8,4C1171.4,875,1172.7,873.6,1174,872.3z"/>
		<path class="st0" d="M71.4,738.5c-1.2-1.1-2.3-2.2-3.5-3.4c1-0.1,2.8-0.5,2.9-0.2C71.4,735.9,71.3,737.2,71.4,738.5z"/>
		<path class="st0" d="M192.6,397.9c1.6-0.1,3.2-0.2,4.9-0.3c-0.9,1-1.8,1.9-2.6,2.9C194.1,399.6,193.4,398.7,192.6,397.9z"/>
		<path class="st0" d="M610.5,402.2c-1.7,0-3.3,0-5,0c0.7-0.9,1.4-1.7,2.1-2.6C608.6,400.5,609.6,401.4,610.5,402.2z"/>
		<path class="st21" d="M546.2,401.5c1.6-0.4,3.1-0.7,4.7-1.1c-0.7,1.1-1.4,2.2-2.1,3.3C548,403,547.1,402.2,546.2,401.5z"/>
		<path class="st0" d="M608.6,459c1.7-0.2,3.3-0.5,5-0.7c-0.6,0.9-1.2,1.9-1.8,2.8C610.7,460.5,609.7,459.7,608.6,459z"/>
		<path class="st0" d="M20.5,679c0,1.7,0.1,3.4,0.1,5.1C20.6,682.4,20.5,680.7,20.5,679z"/>
		<path class="st17" d="M631.3,541.7c0,0.7,0,1.5,0,2.2c-1.1-0.3-2.1-0.5-3.2-0.8C629.1,542.6,630.2,542.1,631.3,541.7z"/>
		<path class="st21" d="M525.5,352.8c-0.8,1.4-1.5,2.7-2.3,4.1C524,355.5,524.7,354.1,525.5,352.8z"/>
		<path class="st17" d="M495.4,915.5c-1.3,0.6-2.6,1.3-3.9,1.9C492.8,916.8,494.1,916.2,495.4,915.5z"/>
		<path class="st19" d="M1198.4,917.6c0.8,1.3,1.5,2.6,2.3,3.9C1199.9,920.3,1199.1,918.9,1198.4,917.6z"/>
		<path class="st21" d="M515.6,371.9c-0.8,1.3-1.5,2.6-2.3,4C514.1,374.5,514.8,373.2,515.6,371.9z"/>
		<path class="st19" d="M477.5,931.6c1.1-0.5,2.1-1,3.2-1.6C479.6,930.5,478.6,931.1,477.5,931.6z"/>
		<path class="st17" d="M455.4,931.6c-1.1,0.3-2.2,0.7-3.2,1C453.2,932.3,454.3,932,455.4,931.6z"/>
		<path class="st21" d="M538.6,349.1c-1.3-0.8-2.7-1.5-4-2.3C535.9,347.6,537.3,348.4,538.6,349.1z"/>
		<path class="st0" d="M185.2,387.5c0.9,1.3,1.7,2.5,2.6,3.8C186.9,390.1,186,388.8,185.2,387.5z"/>
		<path class="st21" d="M522.2,359.1c-0.8,1.3-1.5,2.7-2.3,4C520.6,361.8,521.4,360.5,522.2,359.1z"/>
		<path class="st0" d="M203.2,347.5c-1.4,0.6-2.8,1.3-4.1,1.9C200.4,348.7,201.8,348.1,203.2,347.5z"/>
		<path class="st19" d="M1206.6,932c0.8,1.2,1.5,2.4,2.3,3.6C1208.1,934.4,1207.3,933.2,1206.6,932z"/>
		<path class="st21" d="M525.5,388.3c1.1,0,2.3-0.1,3.4-0.1c-0.5,0.8-1.1,1.5-1.6,2.3C526.7,389.8,526.1,389,525.5,388.3z"/>
		<path class="st19" d="M541.5,896.4c1.2-0.8,2.4-1.7,3.5-2.5C543.9,894.7,542.7,895.6,541.5,896.4z"/>
		<path class="st17" d="M551.3,879.6c-1.2,0.9-2.3,1.9-3.5,2.8C549,881.5,550.1,880.5,551.3,879.6z"/>
		<path class="st19" d="M445.5,942.2c1.4-0.5,2.8-1,4.1-1.6C448.2,941.2,446.8,941.7,445.5,942.2z"/>
		<path class="st19" d="M1211.1,940c0.9,1.2,1.7,2.3,2.6,3.5C1212.9,942.4,1212,941.2,1211.1,940z"/>
		<path class="st0" d="M203.4,393.9c1.3-0.8,2.6-1.7,3.9-2.5C205.9,392.2,204.6,393,203.4,393.9z"/>
		<path class="st0" d="M188.4,392.3c0.9,1.3,1.7,2.5,2.6,3.8C190.1,394.9,189.2,393.6,188.4,392.3z"/>
		<path class="st20" d="M669.1,878.4c1.4,0.6,2.7,1.1,4.1,1.7C671.8,879.5,670.4,879,669.1,878.4z"/>
		<path class="st20" d="M679.9,879.9c-0.1-1.4-0.2-2.8-0.2-4.2C679.7,877.1,679.8,878.5,679.9,879.9z"/>
		<path class="st19" d="M1184.2,877.9c-0.7-1.2-1.5-2.4-2.2-3.7C1182.7,875.4,1183.5,876.7,1184.2,877.9z"/>
		<path class="st0" d="M136.7,397.7c-1.1-0.2-2.2-0.4-3.3-0.7c0.7-0.6,1.4-1.2,2-1.8C135.8,396.1,136.2,396.9,136.7,397.7z"/>
		<path class="st0" d="M272.8,361.3c1.1-0.5,2.2-1,3.4-1.4C275.1,360.3,274,360.8,272.8,361.3z"/>
		<path class="st21" d="M540.1,397.5c1.3,0.9,2.6,1.8,3.9,2.7C542.7,399.2,541.4,398.4,540.1,397.5z"/>
		<path class="st19" d="M547.9,891.8c1.1-0.9,2.2-1.9,3.3-2.8C550.2,889.9,549.1,890.8,547.9,891.8z"/>
		<path class="st0" d="M436.5,328.8c-0.4,1.3-0.8,2.7-1.2,4C435.8,331.4,436.1,330.1,436.5,328.8z"/>
		<path class="st17" d="M519.3,902.4c-1.2,0.8-2.4,1.6-3.6,2.4C517,904,518.2,903.2,519.3,902.4z"/>
		<path class="st21" d="M544.9,352.7c-1.4-0.8-2.8-1.5-4.1-2.3C542.1,351.2,543.5,351.9,544.9,352.7z"/>
		<path class="st20" d="M625.1,903.4c-0.1,1.1-0.2,2.1-0.3,3.2C624.9,905.5,625,904.4,625.1,903.4z"/>
		<path class="st0" d="M273.5,318.5c-1.4,0.5-2.8,1-4.2,1.5C270.7,319.5,272.1,319,273.5,318.5z"/>
		<path class="st21" d="M269.7,870.8c-1.4-0.7-2.7-1.4-4.1-2.1C267,869.4,268.4,870.1,269.7,870.8z"/>
		<path class="st0" d="M198.4,396.9c1.3-0.8,2.6-1.6,4-2.4C201.1,395.3,199.8,396.1,198.4,396.9z"/>
		<path class="st0" d="M73.5,745.6c-0.5-1.4-1-2.8-1.5-4.2C72.5,742.8,73,744.2,73.5,745.6z"/>
		<path class="st0" d="M53.5,738.4c-1.2,0.2-2.3,0.5-3.5,0.7C51.2,738.9,52.3,738.6,53.5,738.4z"/>
		<path class="st17" d="M508.2,909c-1.3,0.7-2.5,1.4-3.8,2C505.6,910.4,506.9,909.7,508.2,909z"/>
		<path class="st0" d="M70.9,472.7c-0.9,1.3-1.7,2.5-2.6,3.8C69.2,475.3,70.1,474,70.9,472.7z"/>
		<path class="st17" d="M569,863.6c-1.1,1-2.2,1.9-3.4,2.9C566.7,865.6,567.8,864.6,569,863.6z"/>
		<path class="st0" d="M90.4,479.2c-1.3-0.8-2.6-1.7-3.9-2.5C87.8,477.5,89.1,478.3,90.4,479.2z"/>
		<path class="st0" d="M95.2,482.3c-1.3-0.8-2.6-1.7-3.8-2.5C92.6,480.6,93.9,481.4,95.2,482.3z"/>
		<path class="st17" d="M527.3,897.5c-1.3,0.8-2.6,1.6-3.9,2.3C524.8,899.1,526,898.3,527.3,897.5z"/>
		<path class="st17" d="M592.7,837.4c-1,1.2-1.9,2.4-2.9,3.6C590.8,839.8,591.7,838.6,592.7,837.4z"/>
		<path class="st0" d="M173.2,365.4c-0.1,1.2-0.2,2.4-0.4,3.6C173,367.9,173.1,366.7,173.2,365.4z"/>
		<path class="st0" d="M51.5,511.3c0.8,0.9,1.7,1.8,2.5,2.7C53.1,513.1,52.3,512.2,51.5,511.3z"/>
		<path class="st19" d="M1184,892c0.8,1.3,1.5,2.6,2.3,3.8C1185.5,894.6,1184.7,893.3,1184,892z"/>
		<path class="st0" d="M65,564.7c-1.4-0.5-2.7-1.1-4.1-1.6C62.3,563.6,63.7,564.1,65,564.7z"/>
		<path class="st0" d="M75.3,779.5c1.3-0.7,2.7-1.4,4-2.1C78,778,76.6,778.7,75.3,779.5z"/>
		<path class="st0" d="M59.8,493.6c-0.6,0.5-1.1,1-1.7,1.4C58.7,494.6,59.3,494.1,59.8,493.6z"/>
		<path class="st22" d="M802.7,1102.9c0-31.4,0-62.8,0-94.6c202.8,0,404.7,0,607.8,0c0,31.8,0,63.1,0,94.5
			c-3.4,0.2-6.9,0.5-10.3,0.5c-194.4,0-388.7,0-583.1,0C812.2,1103.3,807.4,1103,802.7,1102.9z M1066.4,1063.4
			c1.2,2.7,2.2,5.4,3.5,8c6.1,11.8,6.1,11.8,19.1,10.3c-4.3-7.6-8.4-15-12.5-22.5c1.7-2.3,3.4-4.7,5.1-7c1.6-2.2,3.2-4.4,5.2-7.1
			c-12.9-1.2-13-1.1-19.9,13.6c-0.7-2.6-1.8-5.1-1.9-7.7c-0.2-8.6-0.1-17.2-0.1-26.3c-5.1,1.1-8.8,1.9-12.1,2.5
			c0,18.7,0,36.7,0,54.9c4.3,0,7.9,0,11.3,0C1064.9,1075.7,1065.7,1069.6,1066.4,1063.4z M1184.6,1043c0.7-4.5,2.1-9.8-4.5-10.7
			c-5.4-0.7-11.8-1.5-16.4,0.6c-4.4,2-8.9,7.4-9.8,11.9c-0.7,3.7,3.2,9,6.2,12.5c2.2,2.6,6.7,3.1,9.6,5.3c2.3,1.7,3.6,4.6,5.4,7
			c-2.8,1.6-5.5,4.5-8.4,4.6c-4.3,0.1-8.6-1.7-12.9-2.7c-1.5,9.8-0.8,10.8,8.7,11.1c3.2,0.1,6.4,0.1,9.6,0c7.8-0.3,13.1-4,15.1-11.7
			c1.9-7.5-1.3-13.9-8.8-17.7c-2.6-1.3-5.7-1.9-8-3.6c-1.9-1.4-3-3.9-4.4-5.9c2.3-1.4,4.7-3.9,6.9-3.9
			C1177,1040.2,1180.7,1041.9,1184.6,1043z M855.6,1042.6c2.1-7.3-1.2-10.4-7.7-10.9c-3.4-0.2-7-0.4-10.4,0.1
			c-6.2,0.9-11.2,3.9-12.4,10.6c-1.2,6.8,0.1,12.8,7,16.2c3.3,1.6,7,2.9,9.9,5c1.8,1.3,3.8,4.3,3.5,6.2c-0.3,1.8-3.5,4.4-5.4,4.5
			c-4.9,0-9.7-1.2-14.6-1.9c-1.5,9.9-1.2,10.3,9,10.5c3.5,0.1,7,0.3,10.4-0.2c7-0.9,11.9-4.9,13.3-11.9c1.3-6.8-0.7-12.7-7.2-16.3
			c-3.5-1.9-7.4-3.1-10.7-5.2c-1.7-1.1-4-3.9-3.6-5.2c0.5-1.7,3.4-3.9,5.2-3.9C846.3,1040.3,850.6,1041.6,855.6,1042.6z
			 M1045.7,1082.2c-0.5-10.5-0.9-20-1.4-29.6c-0.3-6.2-4.1-9.2-10-8.8c-7.7,0.5-15.4,1.6-23.2,2.5c0,11.9,0,23.7,0,35.6
			c4.5,0,8.3,0,11.9,0c0-7.6,0-14.5,0-21.4c0-3.4-0.6-8,4.6-7c2.1,0.4,4.7,4.4,5,7c0.7,7.1,0.2,14.2,0.2,21.6
			C1037.3,1082.2,1041,1082.2,1045.7,1082.2z M1112.7,1052c0.1,1.1,0.1,2.2,0.2,3.4c-4.7,1.3-9.7,2.1-14.2,4
			c-5.7,2.3-9.4,7.4-7.5,13.3c1.2,3.9,5.3,9,8.7,9.6c8.2,1.4,16.9,0.5,25,0.5c0.5-1.8,0.8-2.3,0.8-2.8c0-7.2,0-14.4-0.2-21.6
			c-0.3-11.1-4.1-14.9-15.1-15c-2.7,0-5.3,0.6-8,0.7c-6.2,0.2-8.4,3.2-7.1,8.8C1101.2,1052.6,1106.9,1052.3,1112.7,1052z
			 M989.6,1052.1c0.1,1,0.3,2,0.4,3c-5.1,1.6-10.4,2.8-15.4,4.8c-5.5,2.3-8.1,7-7,12.9c1,5.2,3.5,9.8,9.7,9.9c8.1,0.2,16.2,0,23.4,0
			c1.1-1.3,1.4-1.6,1.4-1.8c-0.1-7.7-0.2-15.5-0.5-23.2c-0.5-11.5-4.3-15-16-14.5c-2.4,0.1-4.8,0.6-7.2,0.8
			c-6.5,0.4-8.3,3.5-6.2,8.7C978.4,1052.6,984,1052.4,989.6,1052.1z M1331,1082.9c13.8,0,18.9-5.3,18.9-19.5
			c0-13.7-5.7-19.8-18.1-19.8c-13.2,0.1-19,6.3-18.9,20C1312.9,1077.8,1317.7,1082.9,1331,1082.9z M1356.6,1046.4
			c0.3,6.3,0.7,12.1,0.8,17.9c0.1,6,0,12,0,17.8c4.6,0,8,0,11.9,0c0-9.4,0-18.4,0-27.2c7.2-4,9.9-1,10.1,5.6c0.2,7.1,0,14.2,0,21.5
			c4.6,0,8.1,0,11.3,0c0-10.1,0.3-19.6-0.1-29.1c-0.2-5.9-3.6-9.5-9.9-8.9C1373.1,1044.5,1365.4,1045.4,1356.6,1046.4z
			 M1227.7,1065.3c0.7-8.3,0-16.7-7.8-19.5c-5.7-2-13.8-1.3-19.5,1.3c-8.4,3.9-8.1,12.9-7.2,21.1c0.8,7,4.8,12.2,11.4,13.9
			c4.7,1.3,10,0.6,15,0.6c6.6,0,7.8-3.8,6.5-9.5c-16.2,3.3-18.7,2.5-20.9-6.8C1212.7,1066.1,1220.1,1065.7,1227.7,1065.3z
			 M934.6,1032.8c0,17,0,33.1,0,49.4c10,0,19.4,0,29.1,0c0-3.2,0-5.9,0-9.3c-5.6,0-10.8,0-16.8,0c0-13.8,0-26.9,0-40.1
			C942.4,1032.8,938.7,1032.8,934.6,1032.8z M1281.1,1043.9c-0.2-4.3-0.4-7.6-0.6-11.4c-4.6,1.1-8.1,2-10.1,2.5
			c-2.2,4.5-4.1,7.7-5.3,11.2c-0.6,1.8-0.1,4.1,0.3,6.1c0.7,3.1,2.3,6.1,2.6,9.2c0.5,4.5-0.3,9.1,0.3,13.5c1.1,8.5,7.6,7.9,14,8
			c5.7,0.1,6-2.9,5.2-7.1c-7.8-2-8.7-4.9-5.2-21c2.1-2.7,4.3-5.4,7.2-9.1C1285.2,1044.8,1283.2,1044.4,1281.1,1043.9z
			 M1262.5,1076.7c-5.9-2.6-12.6-3.5-15-7.1c-2.2-3.4-1.2-10.8,1.3-14.5c1.8-2.6,8.3-2.1,14.7-3.3c-0.6-1.6-1.2-6.5-2.9-6.9
			c-7.5-1.9-15.5-2.7-21.7,3.8c-5.7,6-7.6,13.4-5,21.4c3.7,11.3,11.8,14.7,28.6,11.7C1262.5,1079.4,1262.5,1076.9,1262.5,1076.7z
			 M886.4,1054.8c0.5-3.7,0.9-7.3,1.4-10.7c-7.9,0.7-15,1.3-22.1,1.9c0,12.6,0,24.2,0,36c4.4,0,8.4,0,12.9,0c0-9,0-17.4,0-26
			C881.4,1055.6,883.7,1055.2,886.4,1054.8z M1306.2,1082.1c0-13.1,0-25.2,0-38c-4.4,0.6-8.2,1.2-11.9,1.7c0,12.6,0,24.6,0,36.3
			C1298.6,1082.1,1302.3,1082.1,1306.2,1082.1z M904.3,1082.1c0-12.9,0-25.2,0-37.9c-4.3,0.6-8,1.2-11.8,1.7c0,12.1,0,24,0,36.2
			C896.6,1082.1,900.2,1082.1,904.3,1082.1z M892.1,1037.6c12.8,0.1,13.1-0.3,10.9-11c-3.5,0.2-7.1,0.3-10.9,0.5
			C892.1,1031,892.1,1034,892.1,1037.6z M1304.8,1037.3c0.2-2.6,0.4-4.1,0.4-5.7c0-1.5-0.3-3-0.4-4.4c-12.4-0.8-12.9-0.3-10.6,10.6
			C1297.5,1037.6,1300.8,1037.5,1304.8,1037.3z"/>
		<path class="st23" d="M679.4,1062.4c0,4,0,7.6,0,12c6.4,0,12.7,0,19.3,0c0,3,0,5.3,0,8.2c-10.5,0-21,0-31.7,0
			c0-16.2,0-32.1,0-48.6c10,0,20,0,30.5,0c0,2.6,0,5.1,0,8.3c-5.9,0-11.7,0-18,0c0,3.7,0,6.7,0,10.6c5.7,0,11.1,0,16.8,0
			c0,3.2,0,5.5,0,8.6C690.7,1061.8,685.2,1062.1,679.4,1062.4z"/>
		<path class="st23" d="M719.8,1053c5.7,0,10.9,0,16.6,0c0,3.2,0,5.7,0,8.9c-5.5,0-10.7,0-16.5,0c0,4.3,0,7.9,0,12.2
			c6,0,12.3,0,19.1,0c0,3.2,0,5.7,0,8.6c-10.7,0-21.2,0-32,0c0-16.4,0-32.3,0-48.7c10.4,0,20.6,0,31.3,0c0,2.7,0,5,0,8.2
			c-6.1,0-12,0-18.4,0C719.8,1046.2,719.8,1049.2,719.8,1053z"/>
		<path class="st24" d="M778.9,1042.6c-6.9,0-12.7,0-18.8,0c0,3.8,0,6.8,0,10.5c5.7,0,10.9,0,16.5,0c0,3.2,0,5.7,0,8.8
			c-5.4,0-10.4,0-16.3,0c-0.3,4.2-0.5,8-0.8,12.4c6.8,0,12.8,0,19.5,0c0,3,0,5.4,0,8.4c-10.5,0-20.7,0-31.5,0c0-16.2,0-32.2,0-48.7
			c10.1,0,19.9,0,30.6,0C778.4,1036.4,778.6,1038.9,778.9,1042.6z"/>
		<path class="st25" d="M802.7,1102.9c4.8,0.1,9.6,0.4,14.4,0.4c194.4,0,388.7,0,583.1,0c3.5,0,6.9-0.3,10.3-0.5
			c-3.4,0.7-6.8,2.1-10.2,2.1c-195.7,0.1-391.5,0.1-587.2,0.1c-2.1,0-4.3,0.2-6.4-0.1C805.2,1104.7,804,1103.6,802.7,1102.9z"/>
		<path class="st26" d="M645,1082.5c0-16,0-31.5,0-47.7c3.6,0,7.4,0,11.8,0c0,15.6,0,31.4,0,47.7
			C653.2,1082.5,649.6,1082.5,645,1082.5z"/>
		<path class="st27" d="M792.9,635.9c0-6.4-0.4-12.8,0.2-19.1c0.2-2.3,2.7-6.2,4-6.2c11.6,0.1,23.4-0.1,34.7,2
			c10.4,1.9,15.2,9.4,15.7,19.3c0.6,12.1-3.6,22-13.4,24.6c-11.6,3-23.9,3.7-36,4.6c-1.6,0.1-4.8-3.8-5-6.1
			C792.4,648.7,792.9,642.2,792.9,635.9z"/>
		<path class="st28" d="M711,800.3c3.6-4.2,6.3-7.3,8.9-10.3c2.4,2.8,6.6,5.4,6.7,8.3c0.4,5.4-4.1,8.6-9.4,8.4
			C715.6,806.7,714,803.5,711,800.3z"/>
		<path class="st23" d="M799.7,812.2c-1,4.5-1.3,10-3.4,14.6c-1.3,2.8-5.6,6.1-8.2,5.8c-3.2-0.4-8.2-4-8.6-6.7
			c-1.2-9.3-1.4-18.9-0.3-28.2c0.3-2.9,5.6-7.2,8.8-7.3c3-0.1,7.3,3.8,8.9,7C799,801.5,798.8,806.6,799.7,812.2z"/>
		<path class="st28" d="M644.7,798.7c4-3.9,6.2-7.9,8.9-8.3c5.3-0.8,9.1,2.6,9.1,8.5c0,6-3.7,10.1-9.2,9.7
			C650.8,808.3,648.5,803.2,644.7,798.7z"/>
		<path class="st21" d="M1004.6,796.6c0.9,4.9,2.2,9.8,2.5,14.7c0.1,1.1-3.4,3.7-4.7,3.4c-1.8-0.4-4.6-3.1-4.5-4.5
			c0.4-4.6,2.1-9,3.2-13.5C1002.2,796.6,1003.4,796.6,1004.6,796.6z"/>
		<path class="st3" d="M967.7,942.4c-0.1-2.4-0.3-4.9-0.3-7.3c0-16,0-32,0-48c0-10.9,0-10.9-11.3-10.9c-2.6,0-5.2,0-7.8-1.2
			c13.8,0,27.7,0,41.5,0c0,0.4,0,0.8,0,1.2c-3.6,0-7.2,0.3-10.7-0.1c-6.8-0.7-8.8,2.4-8.7,8.9c0.3,16.5,0.2,33.1,0.2,49.6
			c0,2.6,0,5.2,0,7.7C969.6,942.4,968.6,942.4,967.7,942.4z"/>
		<path class="st24" d="M741.3,909.4c-0.8,16.1-8,27.4-19.6,29.8c-16.4,3.4-28.4-5-30.5-23.8c-0.9-8.5,1.3-17.9,4.4-26.1
			c3.7-10,13.3-12.2,23.2-11.6c9.5,0.6,16.8,6.7,19.4,16.2C739.7,899,740.3,904.3,741.3,909.4z"/>
		<path class="st24" d="M1152.3,908.2c-0.3,3.7-0.2,7.5-1,11.1c-3.2,14.1-12,21.2-25.2,20.6c-12.7-0.5-21.4-9.2-23-24.2
			c-0.6-6-0.2-12.3,1.2-18.2c3.3-14.4,12.7-21.2,26.3-19.9c11.9,1.1,20.2,10.5,21.3,24.1c0.2,2.1,0,4.3,0,6.4
			C1152,908.2,1152.1,908.2,1152.3,908.2z"/>
		<path class="st24" d="M852.1,893.5c0-0.3-0.1-0.6,0-0.8c1.8-4.9-5-13.7,6.9-13.9c14.1-0.2,21.3,3.6,22,12.6
			c0.8,9.1-5.1,15.7-15,17.1c-1.6,0.2-3.2,0.4-4.7,0.6c-6.7,1.1-10.2-1.1-9.3-8.5C852.3,898.3,852.1,895.9,852.1,893.5z"/>
		<path class="st11" d="M908.1,776.3c13.1,0.8,26.3,1.2,39.4,2.6c6.4,0.7,10.2,5.7,11.3,11.9c1.3,7.2,2,15.2-5.2,19.5
			c-7.1,4.3-5.2,8.6-2.3,13.8c3.6,6.7,7.2,13.4,10.8,20.2c-13.5,3.9-16.8,2.4-22.8-9.5c-2-4-3.8-8.1-6.1-11.9
			c-1-1.6-3.7-3.8-4.5-3.4c-1.8,0.9-4,3.2-4.2,5c-0.3,3.9,0.9,7.8,0.9,11.8c0,3.6,3,8.9-4.3,9.6c-11.2,1.1-12.9,0.2-12.9-7.9
			C908.1,818,908.1,798,908.1,776.3z M924.7,798.5c2.8,3.8,4.5,8,6.3,8.1c5.1,0.1,9.6-3.2,8.8-8.7c-0.4-2.9-4.5-5.3-6.9-7.9
			C930.5,792.5,928,795,924.7,798.5z"/>
		<path class="st23" d="M1288.9,913.7c-3.4-3.7-7.3-6.2-7-8.1c0.3-2.6,4.1-7,5.9-6.7c2.8,0.4,6.1,3.6,7.2,6.4
			C1295.6,906.7,1291.9,909.8,1288.9,913.7z"/>
		<path class="st28" d="M1288.7,892.1c-2.8-4.1-5.8-6.6-5.7-9c0.1-1.8,4-4.6,6.3-4.8c1.7-0.1,5.3,3.5,5.2,5.1
			C1294.3,886,1291.5,888.3,1288.7,892.1z"/>
		<path class="st23" d="M1351.4,894.3c-0.4,2.4-0.2,4.5-1,6c-1.7,3.1-3.9,6-5.9,9c-1.8-3-4.8-5.7-5.2-8.9
			c-0.8-5.2-0.4-10.7,0.5-15.8c0.4-2.1,3.6-3.7,5.5-5.6c1.6,1.9,3.9,3.5,4.6,5.7C1351,887.8,1351,891.4,1351.4,894.3z"/>
		<path class="st26" d="M44.2,585.4c-0.3-0.9-0.6-1.9-1-2.8c7,0.1,7,0.1,5.5,3.7C47.2,586,45.7,585.7,44.2,585.4z"/>
		<path class="st26" d="M284.8,327c-0.5,0.8-0.9,1.5-1.4,2.3c-0.2-0.1-0.5-0.3-0.7-0.4c0.5-0.8,1-1.7,1.4-2.5
			C284.5,326.4,284.7,326.6,284.8,327z"/>
		<path class="st26" d="M280.8,887.6c-0.4,0.9-0.8,1.8-1.3,2.6c-0.4-0.2-0.7-0.3-1.1-0.5c0.4-0.9,0.7-1.9,1.1-2.8
			C280,887.1,280.4,887.3,280.8,887.6z"/>
		<path class="st29" d="M1184.6,1043c-3.9-1.1-7.7-2.8-11.5-2.9c-2.3-0.1-4.6,2.5-6.9,3.9c1.4,2,2.5,4.5,4.4,5.9
			c2.3,1.7,5.4,2.3,8,3.6c7.5,3.8,10.7,10.2,8.8,17.7c-2,7.7-7.3,11.4-15.1,11.7c-3.2,0.1-6.4,0.1-9.6,0c-9.5-0.3-10.2-1.3-8.7-11.1
			c4.3,1,8.6,2.8,12.9,2.7c2.8-0.1,5.6-3,8.4-4.6c-1.8-2.4-3.1-5.2-5.4-7c-2.9-2.2-7.4-2.7-9.6-5.3c-3.1-3.6-7-8.8-6.2-12.5
			c0.9-4.6,5.4-10,9.8-11.9c4.6-2.1,11-1.3,16.4-0.6C1186.7,1033.2,1185.3,1038.5,1184.6,1043z"/>
		<path class="st29" d="M855.6,1042.6c-5-0.9-9.3-2.2-13.7-2.4c-1.8,0-4.7,2.1-5.2,3.9c-0.4,1.3,1.9,4.1,3.6,5.2
			c3.3,2.1,7.2,3.3,10.7,5.2c6.5,3.5,8.5,9.4,7.2,16.3c-1.4,7-6.3,10.9-13.3,11.9c-3.4,0.5-6.9,0.2-10.4,0.2
			c-10.3-0.2-10.6-0.6-9-10.5c4.9,0.7,9.8,1.9,14.6,1.9c1.9,0,5-2.6,5.4-4.5c0.3-1.8-1.7-4.8-3.5-6.2c-2.9-2.2-6.6-3.4-9.9-5
			c-6.9-3.4-8.2-9.4-7-16.2c1.2-6.7,6.3-9.6,12.4-10.6c3.4-0.5,6.9-0.3,10.4-0.1C854.4,1032.2,857.7,1035.2,855.6,1042.6z"/>
		<path class="st29" d="M1045.7,1082.2c-4.7,0-8.4,0-12.8,0c0-7.4,0.4-14.6-0.2-21.6c-0.3-2.6-2.8-6.6-5-7c-5.2-1.1-4.6,3.6-4.6,7
			c-0.1,6.9,0,13.8,0,21.4c-3.7,0-7.5,0-11.9,0c0-11.9,0-23.7,0-35.6c7.8-0.9,15.5-2,23.2-2.5c5.9-0.4,9.7,2.6,10,8.8
			C1044.8,1062.2,1045.2,1071.7,1045.7,1082.2z"/>
		<path class="st29" d="M1112.7,1052c-5.7,0.3-11.4,0.6-17.5,0.9c-1.4-5.6,0.8-8.7,7.1-8.8c2.7-0.1,5.3-0.7,8-0.7
			c11,0.1,14.8,3.8,15.1,15c0.2,7.2,0.2,14.4,0.2,21.6c0,0.5-0.3,1-0.8,2.8c-8.1,0-16.7,1-25-0.5c-3.5-0.6-7.5-5.7-8.7-9.6
			c-1.9-5.9,1.8-11,7.5-13.3c4.5-1.8,9.5-2.7,14.2-4C1112.8,1054.3,1112.7,1053.2,1112.7,1052z M1114.1,1065
			c-1.1-0.8-2.2-1.6-3.3-2.3c-2.7,2.7-5.5,5.4-8.2,8.1c2.4,1.3,4.8,2.5,7.2,3.8C1111.2,1071.4,1112.7,1068.2,1114.1,1065z"/>
		<path class="st29" d="M989.6,1052.1c-5.6,0.3-11.2,0.5-17.4,0.8c-2.1-5.2-0.2-8.3,6.2-8.7c2.4-0.2,4.8-0.7,7.2-0.8
			c11.7-0.5,15.5,2.9,16,14.5c0.3,7.7,0.4,15.4,0.5,23.2c0,0.2-0.3,0.4-1.4,1.8c-7.2,0-15.3,0.1-23.4,0c-6.3-0.1-8.7-4.7-9.7-9.9
			c-1.2-5.9,1.4-10.6,7-12.9c4.9-2.1,10.2-3.2,15.4-4.8C989.9,1054.1,989.7,1053.1,989.6,1052.1z M989.6,1076.7c0-6.3,0-9.4,0-12.4
			c-0.7-0.5-1.4-1.1-2.1-1.6c-2.6,2.8-5.2,5.6-7.8,8.4C982.4,1072.7,985.1,1074.2,989.6,1076.7z"/>
		<path class="st29" d="M1331,1082.9c-13.3,0-18.1-5.1-18.2-19.3c-0.1-13.7,5.8-19.9,18.9-20c12.5-0.1,18.1,6.1,18.1,19.8
			C1349.9,1077.6,1344.8,1082.9,1331,1082.9z M1325.2,1062.1c0.2,2.7-0.4,5.7,0.7,7.9c1.2,2.4,3.9,4.1,6,6.1c1.7-2,4.5-3.9,4.9-6.1
			c0.8-4.6,0.7-9.5,0-14.1c-0.3-2-3.5-5.1-4.9-4.9c-2.2,0.4-4.5,2.8-5.9,5C1324.9,1057.6,1325.4,1060.1,1325.2,1062.1z"/>
		<path class="st2" d="M1356.6,1046.4c8.8-0.9,16.5-1.8,24.2-2.4c6.3-0.5,9.6,3.1,9.9,8.9c0.4,9.5,0.1,19,0.1,29.1
			c-3.2,0-6.7,0-11.3,0c0-7.3,0.2-14.4,0-21.5c-0.2-6.6-2.9-9.6-10.1-5.6c0,8.8,0,17.8,0,27.2c-3.9,0-7.2,0-11.9,0
			c0-5.8,0.1-11.8,0-17.8C1357.4,1058.5,1357,1052.7,1356.6,1046.4z"/>
		<path class="st29" d="M1227.7,1065.3c-7.7,0.4-15,0.7-22.4,1.1c2.2,9.3,4.7,10.1,20.9,6.8c1.3,5.6,0.1,9.4-6.5,9.5
			c-5,0-10.3,0.7-15-0.6c-6.6-1.8-10.6-6.9-11.4-13.9c-0.9-8.1-1.2-17.2,7.2-21.1c5.6-2.6,13.7-3.3,19.5-1.3
			C1227.7,1048.6,1228.4,1057,1227.7,1065.3z M1203.6,1056c0.4,0.6,0.8,1.2,1.2,1.8c4,0,8,0,12,0c0.3-0.6,0.6-1.3,0.9-1.9
			c-2.3-1.7-4.6-4.9-6.8-4.8C1208.4,1051.2,1206,1054.2,1203.6,1056z"/>
		<path class="st29" d="M934.6,1032.8c4.2,0,7.8,0,12.3,0c0,13.3,0,26.4,0,40.1c6,0,11.1,0,16.8,0c0,3.4,0,6.2,0,9.3
			c-9.7,0-19.1,0-29.1,0C934.6,1065.9,934.6,1049.8,934.6,1032.8z"/>
		<path class="st29" d="M1281.1,1043.9c2.1,0.5,4.1,0.9,8.4,1.8c-3,3.8-5.1,6.5-7.2,9.1c-3.5,16.1-2.6,19,5.2,21
			c0.8,4.2,0.5,7.2-5.2,7.1c-6.3-0.1-12.9,0.5-14-8c-0.6-4.5,0.2-9.1-0.3-13.5c-0.3-3.1-1.9-6.1-2.6-9.2c-0.4-2-0.9-4.3-0.3-6.1
			c1.2-3.5,3.1-6.7,5.3-11.2c2-0.5,5.5-1.4,10.1-2.5C1280.7,1036.3,1280.9,1039.6,1281.1,1043.9z"/>
		<path class="st3" d="M1066.4,1063.4c-0.8,6.1-1.6,12.2-2.4,18.8c-3.4,0-7,0-11.3,0c0-18.3,0-36.2,0-54.9c3.2-0.7,7-1.5,12.1-2.5
			c0,9.1-0.1,17.7,0.1,26.3c0.1,2.6,1.2,5.1,1.9,7.7C1066.7,1060.3,1066.6,1061.9,1066.4,1063.4z"/>
		<path class="st29" d="M1262.5,1076.7c0,0.2,0,2.7,0,5.1c-16.8,2.9-24.9-0.4-28.6-11.7c-2.6-8-0.7-15.4,5-21.4
			c6.1-6.5,14.1-5.7,21.7-3.8c1.7,0.4,2.3,5.3,2.9,6.9c-6.3,1.2-12.9,0.7-14.7,3.3c-2.5,3.7-3.4,11.1-1.3,14.5
			C1249.8,1073.3,1256.5,1074.1,1262.5,1076.7z"/>
		<path class="st3" d="M886.4,1054.8c-2.7,0.4-4.9,0.8-7.8,1.3c0,8.6,0,17,0,26c-4.5,0-8.5,0-12.9,0c0-11.8,0-23.4,0-36
			c7.1-0.6,14.2-1.2,22.1-1.9C887.3,1047.5,886.9,1051,886.4,1054.8z"/>
		<path class="st29" d="M1306.2,1082.1c-4,0-7.6,0-11.9,0c0-11.7,0-23.7,0-36.3c3.7-0.5,7.5-1.1,11.9-1.7
			C1306.2,1057,1306.2,1069.1,1306.2,1082.1z"/>
		<path class="st29" d="M904.3,1082.1c-4.1,0-7.7,0-11.8,0c0-12.2,0-24.1,0-36.2c3.8-0.6,7.4-1.1,11.8-1.7
			C904.3,1056.9,904.3,1069.2,904.3,1082.1z"/>
		<path class="st29" d="M1066.4,1063.4c0.1-1.6,0.2-3.2,0.4-4.7c6.9-14.7,7-14.8,19.9-13.6c-2,2.8-3.6,4.9-5.2,7.1
			c-1.7,2.4-3.4,4.7-5.1,7c4.2,7.5,8.3,14.8,12.5,22.5c-13,1.5-13.1,1.5-19.1-10.3C1068.6,1068.9,1067.6,1066.1,1066.4,1063.4z"/>
		<path class="st11" d="M892.1,1037.6c0-3.6,0-6.6,0-10.4c3.9-0.2,7.4-0.4,10.9-0.5C905.3,1037.3,904.9,1037.7,892.1,1037.6z"/>
		<path class="st3" d="M1304.8,1037.3c-4,0.2-7.3,0.4-10.6,0.5c-2.3-10.9-1.8-11.4,10.6-10.6c0.1,1.4,0.4,2.9,0.4,4.4
			C1305.2,1033.1,1305,1034.7,1304.8,1037.3z"/>
		<path class="st28" d="M924.7,798.5c3.3-3.5,5.8-6,8.2-8.5c2.4,2.6,6.5,5,6.9,7.9c0.8,5.5-3.7,8.8-8.8,8.7
			C929.2,806.5,927.5,802.3,924.7,798.5z"/>
		<path class="st23" d="M1114.1,1065c-1.5,3.2-2.9,6.4-4.4,9.5c-2.4-1.3-4.8-2.5-7.2-3.8c2.7-2.7,5.5-5.4,8.2-8.1
			C1111.9,1063.5,1113,1064.3,1114.1,1065z"/>
		<path class="st24" d="M989.6,1076.7c-4.5-2.5-7.2-4.1-9.9-5.6c2.6-2.8,5.2-5.6,7.8-8.4c0.7,0.5,1.4,1.1,2.1,1.6
			C989.6,1067.4,989.6,1070.4,989.6,1076.7z"/>
		<path class="st22" d="M1325.2,1062.1c0.2-2-0.2-4.5,0.8-6.1c1.4-2.1,3.7-4.6,5.9-5c1.4-0.2,4.5,2.9,4.9,4.9
			c0.7,4.6,0.8,9.5,0,14.1c-0.4,2.2-3.2,4.1-4.9,6.1c-2.1-2-4.7-3.7-6-6.1C1324.8,1067.8,1325.3,1064.8,1325.2,1062.1z"/>
		<path class="st28" d="M1203.6,1056c2.5-1.8,4.9-4.8,7.4-4.9c2.2-0.1,4.5,3.1,6.8,4.8c-0.3,0.6-0.6,1.3-0.9,1.9c-4,0-8,0-12,0
			C1204.4,1057.2,1204,1056.6,1203.6,1056z"/>
	</g>
</g>
</svg>
